<svg width="50" height="50" viewBox="0 0 50 50" fill="none" xmlns="http://www.w3.org/2000/svg">
<rect width="50" height="50" rx="25" fill="#D4DFFF"/>
<path d="M39.1125 33.1907C39.1389 33.0654 39.1692 32.9469 39.2019 32.8341C39.0794 32.781 38.9892 32.6513 39.0331 32.5046C39.1331 32.1704 39.2669 31.8542 39.4175 31.5483C39.2223 31.6145 38.9499 31.3858 39.0619 31.1303C39.3542 30.4637 39.8386 29.9307 40.1077 29.2396C40.3324 28.6626 40.5656 28.133 40.9907 27.6693C40.9937 27.666 40.9969 27.6637 40.9999 27.6606C41.0008 27.5263 40.9948 27.3892 40.9796 27.2482C40.9191 26.6848 40.9048 26.1149 40.8704 25.5492C40.8405 25.0586 40.8685 24.5572 40.659 24.1091C40.6073 24.0882 40.5613 24.0547 40.5304 24.0064C39.8448 22.9365 38.9458 21.783 37.7184 21.3384C37.3698 21.3213 37.0247 21.2546 36.6837 21.1398C36.606 21.1137 36.5519 21.0617 36.5196 21C36.3723 21.013 36.2225 21.0298 36.0693 21.0477C35.2413 21.1445 34.4081 21.2033 33.585 21.3379C32.663 21.4886 29.0709 22.2396 30.1905 23.6956C30.3369 23.8859 30.1708 24.0712 29.978 24.0946C30.1619 24.2744 30.3277 24.3798 30.3277 24.3798L30.3274 24.3801C30.3167 24.396 29.9668 24.913 29.5601 25.6099C29.1469 26.318 29.2647 28.0129 29.3947 28.4656C29.5246 28.9182 28.8398 29.7191 28.2021 30.6247C27.5641 31.5299 28.6154 31.4256 28.8987 31.5648C29.182 31.704 29.0996 31.9361 28.8753 32.1566C28.6509 32.3772 29.1586 32.737 29.1586 32.737C29.1586 32.737 29.0169 32.7719 28.9342 33.0507C28.8515 33.3292 29.3237 33.3641 29.4774 33.7469C29.6308 34.1301 29.1966 34.4863 29.1966 34.4863C29.1172 35.9179 31.7388 35.5534 32.348 35.5016C32.9571 35.4494 33.7514 38 33.7514 38L39.3384 36.2604C38.9309 34.9346 38.9529 33.9452 39.1125 33.1907Z" fill="#1E3A8A"/>
<path d="M40.9527 27.9509C40.864 28.6743 39.6817 30.414 39.5933 31.1266C39.5438 31.5233 39.1552 32.0825 38.9689 33C38.9689 33 38.0622 32.666 37.7743 32.4259C37.4863 32.1855 37.5125 31.6249 37.1983 30.2898C36.884 28.9547 36.9628 28.2874 35.8105 28.1538C34.6586 28.0205 34.0041 29.4621 34.0041 29.4621H33.2708C33.2708 29.4621 33.3493 28.2874 32.9565 27.2996C32.5638 26.3117 32.171 26.6586 31.868 26.1781C31.5654 25.6976 32.9565 24.8166 32.9565 24.8166C32.4853 24.1757 30.7799 24.4791 30.7799 24.4791C30.7799 24.4791 28.7227 23.1283 31.2907 21.8322C33.8587 20.5365 38.3223 20.8677 38.9429 22.0434C38.9429 22.0434 40.214 22.4954 40.6276 23.9422C41.0415 25.389 41.0415 27.2275 40.9527 27.9509Z" fill="#1E3A8A"/>
<path d="M12.8875 33.1907C12.8611 33.0654 12.8308 32.9469 12.7981 32.8341C12.9206 32.781 13.0108 32.6513 12.9669 32.5046C12.8669 32.1704 12.7331 31.8542 12.5825 31.5483C12.7777 31.6145 13.0501 31.3858 12.9381 31.1303C12.6458 30.4637 12.1614 29.9307 11.8923 29.2396C11.6676 28.6626 11.4344 28.133 11.0093 27.6693C11.0063 27.666 11.0031 27.6637 11.0001 27.6606C10.9992 27.5263 11.0053 27.3892 11.0204 27.2482C11.0809 26.6848 11.0952 26.1149 11.1296 25.5492C11.1595 25.0586 11.1315 24.5572 11.341 24.1091C11.3927 24.0882 11.4387 24.0547 11.4696 24.0064C12.1552 22.9365 13.0542 21.783 14.2816 21.3384C14.6302 21.3213 14.9753 21.2546 15.3163 21.1398C15.394 21.1137 15.4481 21.0617 15.4804 21C15.6277 21.013 15.7775 21.0298 15.9307 21.0477C16.7587 21.1445 17.5919 21.2033 18.415 21.3379C19.337 21.4886 22.9291 22.2396 21.8095 23.6956C21.6631 23.8859 21.8292 24.0712 22.022 24.0946C21.8381 24.2744 21.6723 24.3798 21.6723 24.3798L21.6726 24.3801C21.6833 24.396 22.0332 24.913 22.4399 25.6099C22.8531 26.318 22.7353 28.0129 22.6053 28.4656C22.4754 28.9182 23.1602 29.7191 23.7979 30.6247C24.4359 31.5299 23.3846 31.4256 23.1013 31.5648C22.818 31.704 22.9004 31.9361 23.1247 32.1566C23.3491 32.3772 22.8414 32.737 22.8414 32.737C22.8414 32.737 22.9831 32.7719 23.0658 33.0507C23.1485 33.3292 22.6763 33.3641 22.5226 33.7469C22.3692 34.1301 22.8034 34.4863 22.8034 34.4863C22.8828 35.9179 20.2612 35.5534 19.6521 35.5016C19.0429 35.4494 18.2486 38 18.2486 38L12.6616 36.2604C13.0691 34.9346 13.0471 33.9452 12.8875 33.1907Z" fill="#1E3A8A"/>
<path d="M21.7136 21.6111C21.7136 21.6111 21.6501 22.0047 20.8335 22.0313C20.7173 21.9649 20.5921 21.8985 20.4507 21.8322C17.6866 20.5365 12.8822 20.8677 12.2141 22.0434C12.2141 22.0434 10.846 22.4954 10.4009 23.9422C9.95538 25.389 9.95538 27.2275 10.0509 27.9509C10.1464 28.6743 11.419 30.414 11.5141 31.1266C11.5674 31.5233 11.9857 32.0825 12.1862 33C12.1862 33 13.1621 32.666 13.4721 32.4259C13.782 32.1854 13.7538 31.6249 14.092 30.2898C14.4303 28.9547 14.3455 28.2874 15.5857 28.1538C16.8257 28.0205 17.3842 30.9668 17.3842 30.9668H18.1734C18.1734 30.9668 18.2349 28.2874 18.6577 27.2996C19.0804 26.3117 19.5031 26.6586 19.8293 26.1781C20.1551 25.6976 21.0005 24.4791 21.0005 24.4791C21.0005 24.4791 22.6469 23.8556 21.7136 21.6111Z" fill="#1E3A8A"/>
<path d="M25.298 16H30.702C30.8666 16 31 16.1356 31 16.3029V19.3917C31 19.559 30.8666 19.6946 30.702 19.6946H30.1181V21L28.8336 19.6946H25.298C25.1334 19.6946 25 19.559 25 19.3917V16.3029C25 16.1356 25.1334 16 25.298 16Z" fill="#1E3A8A"/>
<path d="M29.5033 13H20.4967C20.2224 13 20 13.1898 20 13.424V17.7484C20 17.9826 20.2224 18.1725 20.4967 18.1725H21.4699V20L23.6107 18.1725H29.5033C29.7776 18.1725 30 17.9826 30 17.7484V13.424C30 13.1898 29.7776 13 29.5033 13Z" fill="#1E3A8A"/>
<path d="M23.1101 14.498C22.8172 14.498 22.5797 14.7355 22.5797 15.0285C22.5797 15.3215 22.8172 15.559 23.1101 15.559C23.4031 15.559 23.6406 15.3215 23.6406 15.0285C23.6406 14.7355 23.4031 14.498 23.1101 14.498Z" fill="#1E3A8A"/>
<path d="M24.8935 14.498C24.6006 14.498 24.3631 14.7355 24.3631 15.0285C24.3631 15.3215 24.6006 15.559 24.8935 15.559C25.1865 15.559 25.424 15.3215 25.424 15.0285C25.424 14.7355 25.1865 14.498 24.8935 14.498Z" fill="#1E3A8A"/>
<path d="M26.6769 14.498C26.384 14.498 26.1465 14.7355 26.1465 15.0285C26.1465 15.3215 26.384 15.559 26.6769 15.559C26.9699 15.559 27.2074 15.3215 27.2074 15.0285C27.2074 14.7355 26.9699 14.498 26.6769 14.498Z" fill="#1E3A8A"/>
</svg>
