<svg width="50" height="50" viewBox="0 0 50 50" fill="none" xmlns="http://www.w3.org/2000/svg">
<rect width="50" height="50" rx="25" fill="#D4DFFF"/>
<path d="M25 13C20.0356 13 16 17.6579 16 23.3878C16 25.0457 16.3384 26.6122 16.9396 28C17.1196 27.813 17.3176 27.6468 17.5336 27.5139C17.0116 26.2632 16.72 24.8629 16.72 23.3878C16.72 21.7133 17.0944 20.1385 17.7568 18.7673C18.6388 16.9266 20.0356 15.4557 21.7204 14.6163C22.7284 14.1094 23.8372 13.831 25 13.831C26.404 13.831 27.7288 14.2382 28.888 14.9529C31.498 16.5609 33.28 19.7396 33.28 23.3878C33.28 24.8629 32.9884 26.2632 32.4664 27.5139C32.5744 27.5803 32.6788 27.6551 32.776 27.7341C32.8768 27.8172 32.9704 27.9086 33.0604 28C33.6616 26.6122 34 25.0457 34 23.3878C34 17.6579 29.9644 13 25 13Z" fill="#1E3A8A"/>
<path d="M34 23.3149C34 24.9434 33.6965 26.4851 33.1529 27.8574C33.0576 27.7748 32.9553 27.6967 32.8494 27.6272C32.4541 27.371 32.0059 27.2233 31.5294 27.2233C31.4094 27.2233 31.2929 27.232 31.18 27.2494V26.4851C31.1765 26.4025 31.1553 26.32 31.1129 26.2506L30.1812 24.7219C30.1388 24.6568 30.1176 24.5699 30.1176 24.4831V22.9761C30.1176 22.911 30.1282 22.8502 30.1529 22.7981L30.3824 22.2335C30.4353 22.0989 30.5482 22.0121 30.6718 22.0121H31.2047C31.3847 22.0121 31.5294 21.834 31.5294 21.6125V21.3911C31.5294 21.2391 31.6 21.1001 31.7094 21.035L32.0553 20.8178C32.1647 20.7527 32.2353 20.6137 32.2353 20.4617V19.806C32.2353 19.5845 32.0906 19.4064 31.9106 19.4064H31.6071C31.5541 19.4064 31.5047 19.4195 31.4624 19.4499L30.9682 19.7495C30.8765 19.806 30.7706 19.806 30.6788 19.7495L30.1847 19.4499C30.1424 19.4195 30.0929 19.4064 30.04 19.4064H28.3247C28.1447 19.4064 28 19.2284 28 19.0069V18.3512C28 18.1992 28.0706 18.0602 28.18 17.9951L28.5259 17.7779C28.6353 17.7128 28.7059 17.5738 28.7059 17.4218V16.9224C28.7059 16.8442 28.7235 16.7661 28.7588 16.7009L29.2635 15.7716C29.3024 15.7021 29.32 15.6239 29.32 15.5501C29.32 15.4459 29.2882 15.346 29.2247 15.2678C29.1259 15.1462 29.1012 14.9595 29.1647 14.8075L29.3412 14.4992L29.5459 14.1431C32.2 15.9019 34 19.35 34 23.3149Z" fill="#1E3A8A"/>
<path d="M25 23.4251V24.3937C25 24.5009 24.9463 24.6007 24.8581 24.6673L24.4247 24.9778H24.4209C22.7948 25.2477 21.5484 26.6155 21.5484 28.2606C21.5484 28.5157 21.5791 28.7634 21.6328 29H21.5254C21.4756 28.6229 21.349 28.2643 21.1649 27.9427V27.6617C21.1649 27.573 21.1266 27.4843 21.0614 27.4214L20.5014 26.8817C20.4362 26.8189 20.3979 26.7301 20.3979 26.6414V25.1442C20.3979 25.0148 20.3212 24.8965 20.2023 24.841L18.2924 23.9168C18.1735 23.8614 18.0968 23.7431 18.0968 23.6137V22.6858C18.0968 22.4972 18.2541 22.3457 18.4497 22.3457H18.511C18.7066 22.3457 18.8639 22.1941 18.8639 22.0055V21.7874C18.8639 21.6728 18.8063 21.5693 18.7066 21.5065L17.8706 20.9667C17.7709 20.9039 17.7133 20.8004 17.7133 20.6858V19.5287C17.7133 19.4399 17.675 19.3512 17.6098 19.2884L17 18.7006C17.9588 17.0739 19.4353 15.7726 21.2148 15L21.8284 15.5915C21.8936 15.6543 21.9319 15.7431 21.9319 15.8318V16.8299C21.9319 17.0185 22.0892 17.1701 22.2848 17.1701H22.3461C22.5417 17.1701 22.6989 17.3216 22.6989 17.5102V17.7394C22.6989 17.8466 22.6453 17.9464 22.557 18.0129L21.257 18.9519C21.1994 18.9963 21.1227 19.0185 21.046 19.0185H19.9837C19.7881 19.0185 19.6309 19.1701 19.6309 19.3586V20.3161C19.6309 20.4307 19.6884 20.5342 19.7881 20.597L20.6932 21.1811C20.7507 21.2181 20.8198 21.2366 20.8888 21.2366H21.5791C21.7747 21.2366 21.9319 21.3882 21.9319 21.5767V22.0055C21.9319 22.1941 22.0892 22.3457 22.2848 22.3457H23.1131C23.3087 22.3457 23.466 22.4972 23.466 22.6858V22.7449C23.466 22.9335 23.6232 23.085 23.8188 23.085H24.6472C24.8428 23.085 25 23.2366 25 23.4251Z" fill="#1E3A8A"/>
<path d="M31 36.25C31 33.1825 28.0912 31 24.5 31C20.9087 31 18 33.1825 18 36.25C18 36.6625 18.3656 37 18.8125 37H30.1875C30.6344 37 31 36.6625 31 36.25Z" fill="#1E3A8A"/>
<path d="M25 31C26.6569 31 28 29.6569 28 28C28 26.3431 26.6569 25 25 25C23.3431 25 22 26.3431 22 28C22 29.6569 23.3431 31 25 31Z" fill="#1E3A8A"/>
<path d="M37 36.2857C37 36.6786 36.6574 37 36.2387 37H31.8461C31.9755 36.7893 32.0517 36.5464 32.0517 36.2857C32.0517 34.6179 31.279 33.1607 30 32.1357C30.5101 32.0429 31.0696 32 31.671 32C35.0359 32 37 33.3643 37 36.2857Z" fill="#1E3A8A"/>
<path d="M31.5 32C32.8807 32 34 31.1046 34 30C34 28.8954 32.8807 28 31.5 28C30.1193 28 29 28.8954 29 30C29 31.1046 30.1193 32 31.5 32Z" fill="#1E3A8A"/>
<path d="M17.2414 36.2857C17.2414 36.5464 17.3067 36.7893 17.4176 37H13.6525C13.4731 37 13.31 36.9214 13.1925 36.7893C13.0718 36.6607 13 36.4821 13 36.2857C13 33.3643 14.6835 32 17.5677 32C18.0832 32 18.5628 32.0429 19 32.1357C17.9038 33.1607 17.2414 34.6179 17.2414 36.2857Z" fill="#1E3A8A"/>
<path d="M18 32C19.1046 32 20 31.1046 20 30C20 28.8954 19.1046 28 18 28C16.8954 28 16 28.8954 16 30C16 31.1046 16.8954 32 18 32Z" fill="#1E3A8A"/>
</svg>
