<svg width="50" height="50" viewBox="0 0 50 50" fill="none" xmlns="http://www.w3.org/2000/svg">
<rect width="50" height="50" rx="25" fill="#D4DFFF"/>
<path d="M33.3759 15.3257C33.192 15.112 32.8385 14.9452 32.628 14.5778C32.2305 14.2573 32.2603 14.3641 31.6963 13.9368L31.1515 13.6027C29.6663 12.5479 27.7139 12 25.7935 12C20.5387 12 16.1657 16.2718 16.0485 21.5246C16.0445 21.7251 16.0008 21.9237 15.9194 22.1124L14.0407 26.4616C13.9752 26.6145 13.9891 26.7833 14.0804 26.9243C14.1718 27.0653 14.3207 27.1448 14.4895 27.1448H15.7407C15.9194 27.1448 16.0822 27.2421 16.1657 27.401C16.2491 27.5578 16.2391 27.7465 16.1398 27.8955C16.0286 28.0583 16.0028 28.1933 16.0624 28.2926C16.1577 28.4535 16.1994 28.6362 16.1835 28.8189C16.1676 29.0036 16.2153 29.1545 16.3265 29.2658C16.5867 29.5259 16.966 30.2011 16.539 30.8962C16.4258 31.0809 16.4258 31.3073 16.539 31.4741C16.7078 31.7243 16.9878 31.8733 17.2877 31.8733H19.081C19.9469 31.8733 20.6519 32.5783 20.6519 33.4442V38.27H31.0642V33.5415C31.0642 31.5774 31.7811 29.6868 33.0839 28.2192C34.6686 26.4358 35.5425 24.1361 35.5425 21.747C35.5425 19.8623 35.0063 18.0412 33.9895 16.4664L33.3759 15.3257ZM30.0414 19.767L31.1337 19.1355C31.2945 19.0421 31.4991 19.0977 31.5904 19.2586C31.6838 19.4195 31.6282 19.624 31.4673 19.7154L30.375 20.3469C30.3214 20.3767 30.2638 20.3926 30.2082 20.3926C30.093 20.3926 29.9798 20.333 29.9183 20.2258C29.8249 20.0649 29.8805 19.8603 30.0414 19.767ZM27.9681 17.9399L28.5996 16.8477C28.693 16.6868 28.8975 16.6332 29.0564 16.7245C29.2172 16.8179 29.2709 17.0224 29.1795 17.1813L28.548 18.2736C28.4864 18.3808 28.3732 18.4404 28.258 18.4404C28.2004 18.4404 28.1429 18.4265 28.0912 18.3947C27.9304 18.3054 27.8747 18.1008 27.9681 17.9399ZM25.2593 16.1327C25.2593 15.948 25.4102 15.7971 25.5949 15.7971C25.7796 15.7971 25.9305 15.948 25.9305 16.1327V17.3938C25.9305 17.5785 25.7796 17.7294 25.5949 17.7294C25.4102 17.7294 25.2593 17.5785 25.2593 17.3938V16.1327ZM22.1334 16.7245C22.2943 16.6312 22.4988 16.6868 22.5902 16.8477L23.2217 17.9399C23.315 18.1008 23.2594 18.3054 23.0986 18.3967C23.0449 18.4265 22.9874 18.4424 22.9317 18.4424C22.8166 18.4424 22.7034 18.3828 22.6418 18.2756L22.0103 17.1833C21.9189 17.0224 21.9725 16.8179 22.1334 16.7245ZM19.5993 19.2586C19.6927 19.0977 19.8972 19.0441 20.0561 19.1355L21.1484 19.767C21.3092 19.8603 21.3629 20.0649 21.2715 20.2238C21.2099 20.331 21.0967 20.3906 20.9816 20.3906C20.924 20.3906 20.8664 20.3767 20.8147 20.3449L19.7225 19.7134C19.5616 19.624 19.506 19.4195 19.5993 19.2586ZM19.0055 23.0557C18.8209 23.0557 18.6699 22.9048 18.6699 22.7201C18.6699 22.5354 18.8209 22.3845 19.0055 22.3845H20.2666C20.4513 22.3845 20.6022 22.5354 20.6022 22.7201C20.6022 22.9048 20.4513 23.0557 20.2666 23.0557H19.0055ZM21.1484 25.6752L20.0561 26.3067C20.0025 26.3365 19.9449 26.3524 19.8893 26.3524C19.7741 26.3524 19.6609 26.2928 19.5993 26.1856C19.506 26.0247 19.5616 25.8201 19.7225 25.7288L20.8147 25.0973C20.9756 25.0039 21.1801 25.0595 21.2715 25.2204C21.3648 25.3773 21.3092 25.5818 21.1484 25.6752ZM28.7764 25.4349C28.5599 25.6752 28.407 25.9671 28.3335 26.2769C28.26 26.5847 28.0515 26.827 27.7774 26.9521V27.0832C27.7774 27.6393 27.4815 28.1278 27.0367 28.3999V28.6362C27.0367 29.4226 26.3972 30.0621 25.6128 30.0621H25.573C24.7866 30.0621 24.1491 29.4226 24.1491 28.6362V28.3999C23.7063 28.1298 23.4084 27.6413 23.4084 27.0832V26.9521C23.1343 26.827 22.9258 26.5827 22.8523 26.2769C22.7788 25.9671 22.6259 25.6752 22.4094 25.4349C21.7025 24.6484 21.3132 23.6336 21.3132 22.5751C21.3132 21.4431 21.7501 20.3767 22.5445 19.5704C23.3389 18.7661 24.3974 18.3133 25.5254 18.2954C27.8728 18.2597 29.823 20.1384 29.8706 22.4838C29.8925 23.576 29.5052 24.6246 28.7764 25.4349ZM31.5904 26.1836C31.5289 26.2908 31.4157 26.3504 31.3005 26.3504C31.2429 26.3504 31.1853 26.3365 31.1337 26.3047L30.0414 25.6732C29.8805 25.5799 29.8269 25.3753 29.9183 25.2164C30.0116 25.0556 30.2162 25.0019 30.375 25.0933L31.4673 25.7248C31.6282 25.8182 31.6838 26.0227 31.5904 26.1836ZM32.1842 23.0557H30.9232C30.7385 23.0557 30.5875 22.9048 30.5875 22.7201C30.5875 22.5354 30.7385 22.3845 30.9232 22.3845H32.1842C32.3689 22.3845 32.5199 22.5354 32.5199 22.7201C32.5199 22.9048 32.3689 23.0557 32.1842 23.0557Z" fill="#1E3A8A"/>
<path d="M25.6895 19.1719C25.6716 19.1719 25.6518 19.1719 25.6339 19.1719C23.6738 19.2017 22.0811 20.8202 22.0811 22.7803C22.0811 23.672 22.4087 24.5299 23.0045 25.1932C23.2964 25.5169 23.503 25.9102 23.6023 26.3272C23.638 26.4742 23.7751 26.5794 23.93 26.5794H25.3579V23.7832C25.2705 23.7018 25.1771 23.6243 25.0798 23.5529C24.913 23.4317 24.7283 23.3265 24.5337 23.2391C24.3649 23.1636 24.2894 22.965 24.3649 22.7962C24.4404 22.6274 24.6389 22.5519 24.8077 22.6274C25.0024 22.7148 25.1871 22.8181 25.3598 22.9332C25.3976 22.9591 25.4353 22.9849 25.4711 23.0107C25.5465 23.0663 25.62 23.1239 25.6915 23.1835C25.763 23.1239 25.8365 23.0643 25.9119 23.0107C25.9477 22.9849 25.9854 22.9591 26.0231 22.9332C26.1959 22.8181 26.3806 22.7148 26.5752 22.6274C26.744 22.5519 26.9426 22.6274 27.0181 22.7962C27.0936 22.965 27.0181 23.1636 26.8493 23.2391C26.6547 23.3265 26.47 23.4317 26.3032 23.5529C26.2039 23.6243 26.1105 23.7018 26.0251 23.7832V26.5814H27.4471C27.602 26.5814 27.739 26.4762 27.7747 26.3292C27.874 25.9102 28.0806 25.5189 28.3725 25.1952C28.9862 24.5121 29.3158 23.6283 29.296 22.7068C29.2582 20.7447 27.6457 19.1719 25.6895 19.1719Z" fill="#1E3A8A"/>
<path d="M24.1752 27.251V27.2907C24.1752 27.7713 24.5664 28.1625 25.047 28.1625H26.3339C26.8145 28.1625 27.2057 27.7713 27.2057 27.2907V27.251H25.6944H24.1752Z" fill="#1E3A8A"/>
<path d="M25.0476 28.8315H24.9165V28.8415C24.9165 29.2585 25.2541 29.5961 25.6711 29.5961H25.7109C26.1279 29.5961 26.4655 29.2565 26.4655 28.8415V28.8315H26.3344H25.0476Z" fill="#1E3A8A"/>
</svg>
