<svg width="50" height="50" viewBox="0 0 50 50" fill="none" xmlns="http://www.w3.org/2000/svg">
<rect width="50" height="50" rx="25" fill="#D4DFFF"/>
<path fill-rule="evenodd" clip-rule="evenodd" d="M20.0988 21.6672C20.4821 24.058 22.5311 25.8833 25 25.8833C27.4689 25.8833 29.5179 24.058 29.9012 21.6672C30.097 20.4445 32.3903 20.5961 32.1865 21.9664C31.8841 23.9911 30.7651 25.7439 29.1818 26.8738C28.9213 27.0609 28.7782 27.3383 28.7782 27.6621L28.766 29.9491H27.7915C27.6376 28.5255 26.447 27.4176 25 27.4176C23.553 27.4176 22.3625 28.5255 22.21 29.9491H21.2219V27.6621C21.2219 27.3383 21.0801 27.0609 20.8182 26.8738C19.2349 25.744 18.1172 23.9911 17.8149 21.9664C17.6097 20.5961 19.903 20.4445 20.0988 21.6672ZM22.7687 22.4227C22.7687 23.67 23.7676 24.681 25 24.681C26.2324 24.681 27.2313 23.67 27.2313 22.4227C27.2313 21.1754 26.2324 20.1657 25 20.1657C23.7676 20.1657 22.7687 21.1768 22.7687 22.4227ZM23.9026 17.0563L23.4477 18.8583L25 17.8637L26.5522 18.8583L26.0973 17.0563L27.5106 15.8704L25.6775 15.7516L24.9999 14.0233L24.3223 15.7516L22.4892 15.8704L23.9025 17.0563H23.9026ZM20.559 14.9578L21.1827 15.3212C21.3177 15.4018 21.4931 15.354 21.5714 15.216C21.651 15.0794 21.6038 14.9017 21.4675 14.8225L20.8452 14.4591C20.7089 14.3785 20.5347 14.4263 20.4551 14.5629C20.3768 14.7009 20.4227 14.8785 20.559 14.9578ZM21.9642 20.26C22.1006 20.3392 22.2747 20.2914 22.353 20.1534L22.712 19.5237C22.7903 19.3857 22.7431 19.2094 22.6068 19.1302C22.4704 19.051 22.2977 19.0988 22.2194 19.2368L21.859 19.8666C21.7807 20.0046 21.8279 20.1808 21.9642 20.2601V20.26ZM35.5624 15.0862H35.8526V15.3799C35.8526 15.5398 35.9809 15.6696 36.1388 15.6696C36.2967 15.6696 36.4236 15.5398 36.4236 15.3799V15.0862H36.7138C36.8717 15.0862 36.9999 14.9564 36.9999 14.7966C36.9999 14.6367 36.8717 14.5083 36.7138 14.5083H36.4236V14.2146C36.4236 14.0547 36.2967 13.9249 36.1388 13.9249C35.9809 13.9249 35.8526 14.0547 35.8526 14.2146V14.5083H35.5624C35.4045 14.5083 35.2763 14.6367 35.2763 14.7966C35.2763 14.9564 35.4045 15.0862 35.5624 15.0862ZM22.2193 14.0616C22.2976 14.1996 22.4704 14.246 22.6067 14.1668C22.743 14.0889 22.7903 13.9127 22.712 13.7747L22.353 13.1449C22.2747 13.0069 22.1005 12.9591 21.9642 13.0383C21.8279 13.1175 21.7806 13.2938 21.8589 13.4318L22.2193 14.0616ZM32.4565 19.3515H32.7467V19.6452C32.7467 19.805 32.8736 19.9348 33.0315 19.9348C33.1894 19.9348 33.3176 19.805 33.3176 19.6452V19.3515H33.6078C33.7658 19.3515 33.894 19.223 33.894 19.0632C33.894 18.9034 33.7657 18.7735 33.6078 18.7735H33.3176V18.4798C33.3176 18.32 33.1894 18.1902 33.0315 18.1902C32.8736 18.1902 32.7467 18.32 32.7467 18.4798V18.7735H32.4565C32.2985 18.7735 32.1703 18.9033 32.1703 19.0632C32.1703 19.2231 32.2986 19.3515 32.4565 19.3515ZM27.782 19.2367C27.7037 19.0987 27.5296 19.0509 27.3932 19.1301C27.2569 19.2094 27.2097 19.3856 27.288 19.5236L27.647 20.1534C27.7253 20.2914 27.8994 20.3392 28.0358 20.26C28.1721 20.1807 28.2193 20.0045 28.141 19.8665L27.782 19.2367ZM28.8187 15.3212L29.441 14.9578C29.5773 14.8785 29.6232 14.7009 29.5449 14.563C29.4653 14.4264 29.2911 14.3785 29.1548 14.4591L28.5325 14.8225C28.3962 14.9018 28.3503 15.0794 28.4286 15.216C28.5082 15.354 28.6823 15.4018 28.8187 15.3212ZM28.5325 18.4757L29.1548 18.8391C29.2911 18.9184 29.4653 18.8719 29.5449 18.7339C29.6232 18.5959 29.5773 18.4197 29.441 18.3391L28.8187 17.9757C28.6823 17.8965 28.5082 17.9429 28.4286 18.0809C28.3503 18.2189 28.3962 18.3951 28.5325 18.4757ZM28.8065 16.6491C28.8065 16.809 28.9348 16.9374 29.0927 16.9374H29.8121C29.9687 16.9374 30.097 16.809 30.097 16.6491C30.097 16.4893 29.9687 16.3595 29.8121 16.3595H29.0927C28.9347 16.3595 28.8065 16.4893 28.8065 16.6491ZM27.3932 14.1668C27.5296 14.246 27.7037 14.1996 27.782 14.0616L28.141 13.4317C28.2193 13.2938 28.1721 13.1175 28.0358 13.0383C27.8994 12.959 27.7253 13.0068 27.647 13.1448L27.288 13.7747C27.2097 13.9126 27.2569 14.0889 27.3932 14.1668ZM13.5764 23.6181V23.9118C13.5764 24.0717 13.7046 24.2015 13.8612 24.2015C14.0191 24.2015 14.1473 24.0717 14.1473 23.9118V23.6181H14.4375C14.5955 23.6181 14.7237 23.4883 14.7237 23.3285C14.7237 23.1687 14.5954 23.0402 14.4375 23.0402H14.1473V22.7465C14.1473 22.5866 14.0191 22.4568 13.8612 22.4568C13.7046 22.4568 13.5764 22.5866 13.5764 22.7465V23.0402H13.2862C13.1282 23.0402 13 23.1687 13 23.3285C13 23.4883 13.1283 23.6181 13.2862 23.6181H13.5764ZM36.7139 23.0402H36.4237V22.7465C36.4237 22.5866 36.2968 22.4568 36.1389 22.4568C35.981 22.4568 35.8527 22.5866 35.8527 22.7465V23.0402H35.5625C35.4046 23.0402 35.2764 23.1687 35.2764 23.3285C35.2764 23.4883 35.4046 23.6181 35.5625 23.6181H35.8527V23.9118C35.8527 24.0717 35.981 24.2015 36.1389 24.2015C36.2968 24.2015 36.4237 24.0717 36.4237 23.9118V23.6181H36.7139C36.8718 23.6181 37 23.4883 37 23.3285C37 23.1687 36.8718 23.0402 36.7139 23.0402ZM13.2861 15.0862H13.5763V15.3799C13.5763 15.5398 13.7046 15.6696 13.8611 15.6696C14.0191 15.6696 14.1473 15.5398 14.1473 15.3799V15.0862H14.4375C14.5954 15.0862 14.7236 14.9564 14.7236 14.7966C14.7236 14.6367 14.5954 14.5083 14.4375 14.5083H14.1473V14.2146C14.1473 14.0547 14.019 13.9249 13.8611 13.9249C13.7046 13.9249 13.5763 14.0547 13.5763 14.2146V14.5083H13.2861C13.1282 14.5083 13 14.6367 13 14.7966C13 14.9564 13.1282 15.0862 13.2861 15.0862ZM20.1892 16.9374H20.9073C21.0652 16.9374 21.1934 16.809 21.1934 16.6491C21.1934 16.4893 21.0652 16.3595 20.9073 16.3595H20.1892C20.0312 16.3595 19.903 16.4893 19.903 16.6491C19.903 16.809 20.0313 16.9374 20.1892 16.9374ZM16.3921 19.3515H16.6823V19.6452C16.6823 19.805 16.8105 19.9348 16.9684 19.9348C17.1263 19.9348 17.2546 19.805 17.2546 19.6452V19.3515H17.5448C17.7013 19.3515 17.8296 19.223 17.8296 19.0632C17.8296 18.9034 17.7013 18.7735 17.5448 18.7735H17.2546V18.4798C17.2546 18.32 17.1263 18.1902 16.9684 18.1902C16.8105 18.1902 16.6823 18.32 16.6823 18.4798V18.7735H16.3921C16.2341 18.7735 16.1073 18.9033 16.1073 19.0632C16.1073 19.2231 16.2342 19.3515 16.3921 19.3515ZM21.1827 17.9757L20.559 18.3391C20.4227 18.4197 20.3768 18.5959 20.4551 18.7339C20.5347 18.8719 20.7089 18.9184 20.8452 18.8391L21.4675 18.4744C21.6038 18.3951 21.651 18.2189 21.5714 18.0809C21.4931 17.9429 21.3177 17.8965 21.1827 17.9757ZM34.2693 32.4533C33.234 33.3181 31.7357 33.3181 30.7003 32.4533C29.3546 32.8386 28.303 33.687 28.2558 34.9985V37H36.7139V34.9985C36.6666 33.687 35.6164 32.8386 34.2693 32.4533H34.2693ZM30.2495 30.2592C30.2495 31.5093 31.2497 32.523 32.4848 32.523C33.7199 32.523 34.7215 31.5093 34.7215 30.2592C34.7215 29.0091 33.7199 27.9968 32.4848 27.9968C31.2497 27.9968 30.2495 29.0091 30.2495 30.2592ZM19.2997 32.4533C18.2643 33.3181 16.766 33.3181 15.7307 32.4533C14.385 32.8386 13.3334 33.687 13.2862 34.9985V37H21.7442V34.9985C21.697 33.687 20.6455 32.8386 19.2997 32.4533H19.2997ZM17.5152 32.5229C18.7503 32.5229 19.7519 31.5092 19.7519 30.2592C19.7519 29.0091 18.7503 27.9967 17.5152 27.9967C16.2801 27.9967 15.2785 29.0091 15.2785 30.2592C15.2785 31.5092 16.2801 32.5229 17.5152 32.5229ZM26.7845 32.4533C25.7491 33.3181 24.2509 33.3181 23.2155 32.4533C22.6189 32.6241 22.0803 32.8864 21.6605 33.2389C22.0358 33.6965 22.3044 34.3059 22.3165 34.9876V37H27.6848V34.9876C27.697 34.3059 27.9642 33.6965 28.3395 33.2389C27.921 32.8864 27.3811 32.6241 26.7845 32.4533ZM25 27.9968C23.7649 27.9968 22.7633 29.0091 22.7633 30.2592C22.7633 31.5093 23.7649 32.523 25 32.523C26.2351 32.523 27.2367 31.5093 27.2367 30.2592C27.2367 29.0091 26.2351 27.9968 25 27.9968Z" fill="#1E3A8A"/>
</svg>
