<svg width="50" height="50" viewBox="0 0 50 50" fill="none" xmlns="http://www.w3.org/2000/svg">
<rect width="50" height="50" rx="25" fill="#F0F0F0"/>
<path d="M33 38V40H10.0993C9.4932 40 9 39.5513 9 39C9 38.4487 9.4932 38 10.0993 38H33Z" fill="#1E3A8A"/>
<path d="M35.5028 23C32.4648 23 30 25.4649 30 28.4972C30 31.5296 32.4648 34 35.5028 34C38.5352 34 41 31.5296 41 28.4972C41 25.4649 38.5352 23 35.5028 23ZM38.7633 30.3834C38.9803 30.6004 38.9803 30.951 38.7633 31.168C38.652 31.2792 38.5129 31.3349 38.3682 31.3349C38.2291 31.3349 38.0845 31.2792 37.9788 31.168L35.5028 28.6975L33.0268 31.168C32.9156 31.2792 32.7765 31.3349 32.6318 31.3349C32.4871 31.3349 32.348 31.2792 32.2367 31.168C32.0197 30.951 32.0197 30.6004 32.2367 30.3834L34.7127 27.9074L32.2367 25.4315C32.0197 25.2145 32.0197 24.864 32.2367 24.647C32.4537 24.4299 32.8098 24.4299 33.0268 24.647L35.5028 27.1229L37.9788 24.647C38.1958 24.4299 38.5463 24.4299 38.7633 24.647C38.9803 24.864 38.9803 25.2145 38.7633 25.4315L36.2873 27.9074L38.7633 30.3834Z" fill="#1E3A8A"/>
<path d="M13 9V36.7188H10.1473C9.72557 36.7188 9.34108 36.8256 9 37V9.76496C9 9.3431 9.37828 9 9.83719 9H13Z" fill="#1E3A8A"/>
<path d="M28.8745 28.6364C28.8745 31.9621 31.5507 34.707 35 35.096V36H14V9H35V22.1767C31.5507 22.5658 28.8745 25.3107 28.8745 28.6364Z" fill="#1E3A8A"/>
</svg>
