<svg width="50" height="50" viewBox="0 0 50 50" fill="none" xmlns="http://www.w3.org/2000/svg">
<rect width="50" height="50" rx="25" fill="#F0F0F0"/>
<path d="M38.1954 24.1603V14.3863C38.1954 14.2397 38.1553 14.1057 38.0955 13.9823C38.1315 13.8824 38.1954 13.7943 38.1954 13.6837C38.1954 13.2657 37.9183 12.8979 37.5157 12.7826L24.4015 9.03569C24.2332 8.9881 24.0557 8.9881 23.8874 9.03569L10.7731 12.7826C10.3706 12.8979 10.0934 13.2657 10.0934 13.6837C10.0934 14.1017 10.3706 14.4695 10.7731 14.5848L15.7138 15.9964V17.105C15.7138 18.1707 16.3057 19.1504 17.2214 19.6005C21.4202 21.6642 26.8668 21.6633 31.0675 19.6014C31.9832 19.1514 32.5751 18.1716 32.5751 17.105V15.9964L36.322 14.9259V24.1603C35.234 24.5483 34.4486 25.5783 34.4486 26.798V28.6714C34.4486 29.1892 34.8675 29.6082 35.3853 29.6082H39.1322C39.65 29.6082 40.069 29.1892 40.069 28.6714V26.798C40.0689 25.5783 39.2834 24.5484 38.1954 24.1603Z" fill="#1E3A8A"/>
<path d="M31.7987 21.4081C29.4441 22.5653 26.7647 23.1763 24.0506 23.1763C21.3364 23.1763 18.6561 22.5643 16.3005 21.4071C16.0705 21.294 15.8799 21.1264 15.6755 20.9771C15.8756 24.3487 17.6896 27.2096 20.2532 28.6754C20.2532 28.6754 21.5682 29.2967 21.9791 29.4134L21.9807 29.4103C22.6461 29.6001 23.3312 29.7335 24.0505 29.7335C24.7092 29.7335 25.6473 29.6021 26.5848 29.2559C27.0167 29.1022 27.8448 28.6773 27.8448 28.6773C30.41 27.2121 32.2253 24.3502 32.4256 20.9774C32.2206 21.1271 32.0295 21.2947 31.7987 21.4081Z" fill="#1E3A8A"/>
<path d="M24.2443 32.7732C23.3444 32.7732 22.4784 32.6344 21.6346 32.4307L24.2443 36.3454L26.8394 32.4344C26 32.6357 25.1391 32.7732 24.2443 32.7732Z" fill="#1E3A8A"/>
<path d="M29.1987 29.9785C29.1819 29.9898 29.163 29.9976 29.1462 30.0089L28.3481 31.2057C28.3481 31.2499 24.7093 36.6903 24.6848 36.7271V41.167H37.0222C37.5467 41.167 37.9712 40.7427 37.9712 40.2183C37.9712 35.0376 34.1568 30.7849 29.1987 29.9785ZM31.328 37.3723H29.4299C28.9054 37.3723 28.4809 36.9479 28.4809 36.4236C28.4809 35.8992 28.9054 35.4749 29.4299 35.4749H31.328C31.8526 35.4749 32.277 35.8992 32.277 36.4236C32.277 36.9479 31.8526 37.3723 31.328 37.3723Z" fill="#1E3A8A"/>
<path d="M18.6936 29.9455C18.6783 29.9353 18.6614 29.9283 18.6461 29.918C13.7574 30.7196 10 34.9249 10 40.0371C10 40.5549 10.419 40.9739 10.9367 40.9739H23.1143V36.5899C18.8691 30.2111 19.7353 31.5134 18.6936 29.9455Z" fill="#1E3A8A"/>
</svg>
