<svg width="50" height="50" viewBox="0 0 50 50" fill="none" xmlns="http://www.w3.org/2000/svg">
<rect width="50" height="50" rx="25" fill="#F0F0F0"/>
<path d="M16.108 23.3186C16.1824 23.4902 16.1012 23.6882 15.932 23.7608C15.756 23.8334 15.5529 23.7542 15.4784 23.5892C15.0519 22.6388 14.8083 21.6026 14.7676 20.5532H12.7301C12.2766 20.5532 12.2766 19.8866 12.7301 19.8866H14.7676C14.8218 18.593 15.1738 17.3654 15.756 16.2896L13.9892 15.293C13.5966 15.0752 13.9418 14.4878 14.3276 14.7122L16.0944 15.7088C16.7849 14.6462 17.7055 13.7486 18.7953 13.0754L17.78 11.3462C17.5498 10.9634 18.1455 10.6268 18.3757 11.0096L19.3978 12.7322C20.508 12.1646 21.7603 11.8214 23.087 11.7686V9.782C23.087 9.3398 23.7775 9.3398 23.7775 9.782V11.7686C25.1043 11.8214 26.3566 12.1646 27.4668 12.7322L28.4889 11.0096C28.7123 10.6268 29.3148 10.9634 29.0846 11.3462L28.0624 13.0688C29.1523 13.742 30.0729 14.6396 30.7634 15.7022L32.5302 14.7056C32.9228 14.4878 33.268 15.0686 32.8754 15.2864L31.1086 16.283C31.6908 17.3654 32.0428 18.5864 32.0969 19.88H34.1345C34.588 19.88 34.588 20.5532 34.1345 20.5532H32.0969C32.0495 21.7346 31.7449 22.8962 31.2169 23.9456C31.1357 24.1106 30.9258 24.1766 30.7566 24.0974C30.5874 24.0182 30.5197 23.8136 30.6009 23.6486C32.1105 20.6654 31.4877 17.0618 29.0778 14.7122C25.964 11.6762 20.9074 11.6762 17.7935 14.7122C15.4784 16.9694 14.8015 20.3882 16.108 23.3186ZM25.6594 22.3022C24.2717 22.3814 22.9923 23.0414 22.1326 24.1106C22.0175 24.2558 21.8009 24.2822 21.652 24.17C21.503 24.0578 21.476 23.8466 21.591 23.7014C22.0514 23.1206 22.6335 22.6454 23.2766 22.2956C23.1683 22.289 23.0667 22.2692 22.9652 22.2494C22.383 22.7576 20.7517 22.7642 20.2575 21.9854C19.7092 22.4078 18.9037 22.4342 18.3283 22.0646C18.3215 23.1668 18.4095 24.1568 18.9307 25.3976C19.1947 25.523 19.5061 25.622 19.8717 25.7012C20.3049 25.787 20.8058 25.8398 21.3677 25.8596C21.8212 25.8728 21.8009 26.5394 21.3474 26.5262C20.5215 26.5064 19.6957 26.4074 18.9984 26.1566V31.9712H25.9504V26.4206C25.0772 26.579 24.2175 26.6318 23.3307 26.579C23.1412 26.5658 22.9923 26.4074 23.0058 26.2226C23.0194 26.0378 23.1818 25.8926 23.3714 25.9058C23.8452 25.9388 24.3258 25.9322 24.8064 25.8926C25.26 25.8596 25.7135 25.787 26.1535 25.6946C26.6206 25.3646 27.1824 24.9158 27.6698 24.3284C28.3129 23.5496 28.7597 22.586 28.7597 21.4508C28.7597 21.0284 28.692 20.5664 28.5024 20.1968C28.2723 19.7612 27.9 19.5368 27.3517 19.5368H22.6674C21.8686 19.5368 21.8821 20.2232 22.1055 20.7116C22.3289 21.1934 22.8163 21.6224 23.4526 21.6224H26.7357C27.1892 21.6224 27.1892 22.2956 26.7357 22.2956H25.6594V22.3022ZM22.1867 21.8798C20.9412 20.9492 20.9006 18.956 22.5387 18.8636V16.9958C22.5387 15.8738 20.7923 15.8738 20.7923 16.9958V21.4574C20.799 21.9458 21.7603 21.9656 22.1867 21.8798ZM17.6716 19.9724V17.966C17.6716 16.5932 19.1744 16.1048 20.1289 16.7054C20.332 15.524 21.7806 15.161 22.6538 15.8012C23.148 14.6 25.0434 14.5934 25.5511 15.788C26.4852 15.095 28.1098 15.557 28.1098 16.9826V18.989C28.5837 19.1606 28.9018 19.4906 29.1117 19.8932C29.4569 20.5598 29.4975 21.4442 29.3892 22.157C29.1252 23.9522 27.9474 25.226 26.6409 26.1764V32.3078C26.6409 32.4926 26.4852 32.6444 26.2957 32.6444H18.6532C18.4637 32.6444 18.308 32.4926 18.308 32.3078V25.7012C17.5769 23.9918 17.6107 22.7708 17.6513 21.1868L17.6716 19.9724ZM18.3621 17.966V20.804C18.3621 21.926 20.1086 21.926 20.1086 20.804V17.966C20.1086 16.8374 18.3621 16.8374 18.3621 17.966ZM23.236 16.9958V18.8636H24.9824V16.4084C24.9824 15.2864 23.236 15.2798 23.236 16.4084V16.9958ZM27.4194 18.8636V16.9826C27.4194 15.854 25.6729 15.854 25.6729 16.9826V18.8636H27.4194ZM25.5984 8.0066C25.436 8 25.2532 8 25.0366 8C20.0815 8 15.2415 9.2342 12.703 13.016C10.4489 16.3754 10.6722 20.7776 11.9855 24.5396C12.5541 26.1566 13.2919 27.1994 13.9418 28.1168C15.167 29.8394 16.0876 31.133 15.2009 34.7498C14.5578 37.3766 14.4021 38.426 13.7861 41H25.4901L26.0588 38.6768C26.4717 37.0004 27.9812 35.8256 29.7412 35.8256H32.3406C33.1868 35.8256 33.9043 35.5286 34.5068 34.9544C35.1092 34.3736 35.4274 33.6806 35.4409 32.8622C35.4612 31.9052 35.4612 31.331 35.468 30.7568C35.4748 30.1826 35.4748 29.6018 35.4951 28.6712C35.4883 28.493 35.6237 28.328 35.8132 28.3148L39.0489 28.1564C39.78 28.1234 40.2403 27.3446 39.868 26.7308C38.812 25.0214 37.0994 22.5332 36.3819 21.0482C36.3615 21.002 36.348 20.9492 36.348 20.8898C36.5782 13.7486 33.3831 8.2574 25.5984 8.0066Z" fill="#1E3A8A"/>
</svg>
