<svg width="50" height="50" viewBox="0 0 50 50" fill="none" xmlns="http://www.w3.org/2000/svg">
<rect width="50" height="50" rx="25" fill="#F0F0F0"/>
<path fill-rule="evenodd" clip-rule="evenodd" d="M30.2783 18.3521C30.0576 18.2244 29.9827 17.9414 30.1104 17.7214C30.2381 17.5007 30.5211 17.4258 30.7411 17.5535L32.5417 18.5934C32.7625 18.7211 32.8374 19.0041 32.7096 19.2241C32.5819 19.4448 32.2989 19.5197 32.0789 19.392L30.2783 18.3521Z" fill="#1E3A8A"/>
<path fill-rule="evenodd" clip-rule="evenodd" d="M31.3616 15.2341C31.1062 15.2341 30.8989 15.0268 30.8989 14.7714C30.8989 14.5159 31.1062 14.3086 31.3616 14.3086H33.4406C33.696 14.3086 33.9033 14.5159 33.9033 14.7714C33.9033 15.0268 33.696 15.2341 33.4406 15.2341H31.3616Z" fill="#1E3A8A"/>
<path fill-rule="evenodd" clip-rule="evenodd" d="M30.7386 11.99C30.5178 12.1169 30.2364 12.0404 30.1094 11.8197C29.9825 11.5989 30.059 11.3175 30.2797 11.1905L32.0804 10.1507C32.3011 10.0238 32.5825 10.1002 32.7095 10.321C32.8364 10.5417 32.7599 10.8232 32.5392 10.9501L30.7386 11.99Z" fill="#1E3A8A"/>
<path fill-rule="evenodd" clip-rule="evenodd" d="M28.5801 9.49362C28.4524 9.71436 28.1693 9.78925 27.9494 9.66154C27.7286 9.53382 27.6537 9.2508 27.7815 9.03084L28.8213 7.23021C28.949 7.00946 29.2321 6.93457 29.452 7.06229C29.6728 7.19 29.7477 7.47303 29.6199 7.69298L28.5801 9.49362Z" fill="#1E3A8A"/>
<path fill-rule="evenodd" clip-rule="evenodd" d="M22.2187 9.03245C22.3456 9.25319 22.2692 9.53464 22.0484 9.66157C21.8277 9.78849 21.5462 9.71202 21.4193 9.49128L20.3802 7.69143C20.2533 7.47069 20.3298 7.18924 20.5505 7.06231C20.7713 6.93538 21.0527 7.01186 21.1797 7.2326L22.2187 9.03245Z" fill="#1E3A8A"/>
<path fill-rule="evenodd" clip-rule="evenodd" d="M19.722 11.1905C19.9428 11.3182 20.0176 11.6013 19.8899 11.8212C19.7622 12.042 19.4792 12.1169 19.2592 11.9891L17.4586 10.9493C17.2379 10.8216 17.163 10.5385 17.2907 10.3186C17.4184 10.0978 17.7014 10.0229 17.9214 10.1507L19.722 11.1905Z" fill="#1E3A8A"/>
<path fill-rule="evenodd" clip-rule="evenodd" d="M18.639 14.3086C18.8944 14.3086 19.1018 14.5159 19.1018 14.7714C19.1018 15.0268 18.8944 15.2341 18.639 15.2341H16.5601C16.3046 15.2341 16.0973 15.0268 16.0973 14.7714C16.0973 14.5159 16.3046 14.3086 16.5601 14.3086H18.639Z" fill="#1E3A8A"/>
<path fill-rule="evenodd" clip-rule="evenodd" d="M19.2607 17.5525C19.4814 17.4256 19.7628 17.5021 19.8898 17.7228C20.0167 17.9436 19.9402 18.225 19.7195 18.352L17.9188 19.3918C17.6981 19.5187 17.4167 19.4423 17.2897 19.2215C17.1628 19.0008 17.2393 18.7193 17.46 18.5924L19.2607 17.5525Z" fill="#1E3A8A"/>
<path d="M29.2304 15.4627C29.6112 13.1284 28.0275 10.9273 25.6932 10.5465C23.3588 10.1657 21.1577 11.7494 20.7769 14.0838C20.3961 16.4182 21.9798 18.6192 24.3142 19C26.6486 19.3808 28.8496 17.7971 29.2304 15.4627Z" fill="#1E3A8A"/>
<path fill-rule="evenodd" clip-rule="evenodd" d="M25.0002 32.8618L26.4824 35.6172L29.5609 36.1753L27.3985 38.4364L27.8187 41.5362L25.0002 40.1787L22.1818 41.5362L22.602 38.4364L20.4395 36.1753L23.5181 35.6172L25.0002 32.8618Z" fill="#1E3A8A"/>
<path fill-rule="evenodd" clip-rule="evenodd" d="M13.1797 37.3135L14.2125 39.2339L16.3584 39.6234L14.8511 41.1986L15.1444 43.3595L13.1797 42.4134L11.2151 43.3595L11.5084 41.1986L10.001 39.6234L12.147 39.2339L13.1797 37.3135Z" fill="#1E3A8A"/>
<path fill-rule="evenodd" clip-rule="evenodd" d="M36.8213 37.3135L37.854 39.2339L40 39.6234L38.4926 41.1986L38.7859 43.3595L36.8213 42.4134L34.8567 43.3595L35.1499 41.1986L33.6426 39.6234L35.7885 39.2339L36.8213 37.3135Z" fill="#1E3A8A"/>
<path fill-rule="evenodd" clip-rule="evenodd" d="M31.4666 26.2993L34.3292 28.3791C34.6729 28.629 34.7494 29.113 34.4995 29.4568L32.4773 32.2397C31.7867 33.1897 31.9995 34.5323 32.9495 35.2229C33.8995 35.9135 35.2421 35.7006 35.9327 34.7507L39.5584 29.7603C40.3074 28.7291 40.078 27.2769 39.0468 26.528C36.7905 24.8882 34.5341 23.2491 32.277 21.6093C30.1437 20.0594 19.7617 20.1272 17.7222 21.6093C15.4659 23.2491 13.2095 24.8882 10.9524 26.528C9.92126 27.2769 9.69105 28.7291 10.4408 29.7603L14.0665 34.7507C14.7571 35.7006 16.0989 35.9135 17.0497 35.2229C17.9997 34.5323 18.2125 33.1897 17.5219 32.2397L15.4998 29.4568C15.2498 29.113 15.3271 28.629 15.67 28.3791L18.5326 26.2993V37.659C18.5326 38.5088 19.2256 39.2018 20.0755 39.2018H21.5631L21.6238 38.754L18.5807 35.5721L22.9128 34.7869L25.0004 30.9081L27.0864 34.7853L31.4185 35.5706L28.3754 38.7524L28.4361 39.2002H29.9238C30.7736 39.2002 31.4666 38.5072 31.4666 37.6574V26.2993Z" fill="#1E3A8A"/>
</svg>
