<svg width="231" height="220" viewBox="0 0 231 220" fill="none" xmlns="http://www.w3.org/2000/svg">
<g opacity="0.5" clip-path="url(#clip0_965_5567)">
<path fill-rule="evenodd" clip-rule="evenodd" d="M155.117 89.1602C153.235 89.1602 151.43 88.4131 150.103 87.0835C148.775 85.7538 148.027 83.9504 148.027 82.0703V81.4329C148.027 80.2211 146.738 80.1367 146.738 80.1367C146.609 80.1367 146.48 80.156 146.358 80.1934C140.518 81.9904 138.83 85.1441 136.903 89.1602H106.133C102.575 89.1602 99.6875 92.0457 99.6875 95.6055C99.6875 103.531 99.6875 118.618 99.6875 126.543C99.6875 130.103 102.575 132.988 106.133 132.988C117.354 132.988 143.896 132.988 155.117 132.988C158.675 132.988 161.562 130.103 161.562 126.543V95.6055C161.562 92.0457 158.675 89.1602 155.117 89.1602ZM145.52 83.2421C145.778 85.3748 146.745 87.3722 148.279 88.9069C150.096 90.7199 152.552 91.7383 155.117 91.7383C157.251 91.7383 158.984 93.4695 158.984 95.6055C158.984 103.531 158.984 118.618 158.984 126.543C158.984 128.679 157.251 130.41 155.117 130.41H106.133C103.999 130.41 102.266 128.679 102.266 126.543V95.6055C102.266 93.4695 103.999 91.7383 106.133 91.7383H137.715C138.211 91.7383 138.662 91.4534 138.875 91.0061C140.461 87.7029 141.582 84.9494 145.52 83.2421ZM147.383 102.051H121.602C120.893 102.051 120.312 102.628 120.312 103.34C120.312 104.051 120.893 104.629 121.602 104.629H147.383C148.092 104.629 148.672 104.051 148.672 103.34C148.672 102.628 148.092 102.051 147.383 102.051ZM147.383 109.785H113.867C113.158 109.785 112.578 110.363 112.578 111.074C112.578 111.786 113.158 112.363 113.867 112.363H147.383C148.092 112.363 148.672 111.786 148.672 111.074C148.672 110.363 148.092 109.785 147.383 109.785ZM147.383 117.52H113.867C113.158 117.52 112.578 118.097 112.578 118.809C112.578 119.52 113.158 120.098 113.867 120.098H147.383C148.092 120.098 148.672 119.52 148.672 118.809C148.672 118.097 148.092 117.52 147.383 117.52Z" fill="#F0F0F0"/>
</g>
<g opacity="0.5" clip-path="url(#clip1_965_5567)">
<path fill-rule="evenodd" clip-rule="evenodd" d="M73.9062 155.547C71.3969 155.547 68.9906 154.551 67.2203 152.778C65.45 151.005 64.4531 148.601 64.4531 146.094V145.244C64.4531 143.628 62.7344 143.516 62.7344 143.516C62.5625 143.516 62.3905 143.541 62.2273 143.591C54.4413 145.987 52.1898 150.192 49.6203 155.547H8.59375C3.85 155.547 0 159.394 0 164.141C0 174.707 0 194.824 0 205.391C0 210.137 3.85 213.984 8.59375 213.984C23.5555 213.984 58.9445 213.984 73.9062 213.984C78.65 213.984 82.5 210.137 82.5 205.391V164.141C82.5 159.394 78.65 155.547 73.9062 155.547ZM61.1102 147.656C61.454 150.5 62.7429 153.163 64.7882 155.209C67.2116 157.627 70.4859 158.984 73.9062 158.984C76.7508 158.984 79.0625 161.293 79.0625 164.141C79.0625 174.707 79.0625 194.824 79.0625 205.391C79.0625 208.239 76.7508 210.547 73.9062 210.547H8.59375C5.74922 210.547 3.4375 208.239 3.4375 205.391V164.141C3.4375 161.293 5.74922 158.984 8.59375 158.984H50.7031C51.3648 158.984 51.9664 158.605 52.25 158.008C54.3641 153.604 55.8595 149.933 61.1102 147.656ZM63.5938 172.734H29.2188C28.2734 172.734 27.5 173.504 27.5 174.453C27.5 175.402 28.2734 176.172 29.2188 176.172H63.5938C64.5391 176.172 65.3125 175.402 65.3125 174.453C65.3125 173.504 64.5391 172.734 63.5938 172.734ZM63.5938 183.047H18.9062C17.9609 183.047 17.1875 183.817 17.1875 184.766C17.1875 185.714 17.9609 186.484 18.9062 186.484H63.5938C64.5391 186.484 65.3125 185.714 65.3125 184.766C65.3125 183.817 64.5391 183.047 63.5938 183.047ZM63.5938 193.359H18.9062C17.9609 193.359 17.1875 194.129 17.1875 195.078C17.1875 196.027 17.9609 196.797 18.9062 196.797H63.5938C64.5391 196.797 65.3125 196.027 65.3125 195.078C65.3125 194.129 64.5391 193.359 63.5938 193.359Z" fill="#F0F0F0"/>
</g>
<g opacity="0.5" clip-path="url(#clip2_965_5567)">
<path fill-rule="evenodd" clip-rule="evenodd" d="M223.867 157.91C221.985 157.91 220.18 157.163 218.853 155.833C217.525 154.504 216.777 152.7 216.777 150.82V150.183C216.777 148.971 215.488 148.887 215.488 148.887C215.359 148.887 215.23 148.906 215.108 148.943C209.268 150.74 207.58 153.894 205.653 157.91H174.883C171.325 157.91 168.438 160.796 168.438 164.355C168.438 172.281 168.438 187.368 168.438 195.293C168.438 198.853 171.325 201.738 174.883 201.738C186.104 201.738 212.646 201.738 223.867 201.738C227.425 201.738 230.312 198.853 230.312 195.293V164.355C230.312 160.796 227.425 157.91 223.867 157.91ZM214.27 151.992C214.528 154.125 215.495 156.122 217.029 157.657C218.846 159.47 221.302 160.488 223.867 160.488C226.001 160.488 227.734 162.219 227.734 164.355C227.734 172.281 227.734 187.368 227.734 195.293C227.734 197.429 226.001 199.16 223.867 199.16H174.883C172.749 199.16 171.016 197.429 171.016 195.293V164.355C171.016 162.219 172.749 160.488 174.883 160.488H206.465C206.961 160.488 207.412 160.203 207.625 159.756C209.211 156.453 210.332 153.699 214.27 151.992ZM216.133 170.801H190.352C189.643 170.801 189.062 171.378 189.062 172.09C189.062 172.801 189.643 173.379 190.352 173.379H216.133C216.842 173.379 217.422 172.801 217.422 172.09C217.422 171.378 216.842 170.801 216.133 170.801ZM216.133 178.535H182.617C181.908 178.535 181.328 179.113 181.328 179.824C181.328 180.536 181.908 181.113 182.617 181.113H216.133C216.842 181.113 217.422 180.536 217.422 179.824C217.422 179.113 216.842 178.535 216.133 178.535ZM216.133 186.27H182.617C181.908 186.27 181.328 186.847 181.328 187.559C181.328 188.27 181.908 188.848 182.617 188.848H216.133C216.842 188.848 217.422 188.27 217.422 187.559C217.422 186.847 216.842 186.27 216.133 186.27Z" fill="#F0F0F0"/>
</g>
<g opacity="0.5" clip-path="url(#clip3_965_5567)">
<path d="M126.328 154.688C130.769 154.688 134.385 158.301 134.385 162.744C134.385 163.634 133.663 164.355 132.773 164.355C131.884 164.355 131.162 163.634 131.162 162.744C131.162 160.078 128.992 157.91 126.328 157.91C123.664 157.91 121.494 160.078 121.494 162.744C121.494 163.634 120.772 164.355 119.883 164.355C118.993 164.355 118.271 163.634 118.271 162.744C118.271 158.301 121.887 154.688 126.328 154.688Z" fill="#F0F0F0"/>
<path d="M108.604 161.133H144.053C146.126 161.133 147.812 162.819 147.812 164.893C147.812 165.993 147.333 167.035 146.498 167.75C146.444 167.797 146.386 167.84 146.326 167.879C143.172 170.631 141.367 174.591 141.367 178.771V184.766C141.367 191.763 136.626 197.77 129.837 199.375C128.969 199.575 128.101 199.044 127.896 198.176C127.692 197.31 128.229 196.442 129.093 196.238C134.423 194.979 138.145 190.261 138.145 184.766V178.771C138.145 173.581 140.42 168.669 144.381 165.299C144.414 165.273 144.442 165.249 144.476 165.226C144.534 165.152 144.59 165.041 144.59 164.893C144.59 164.6 144.345 164.355 144.053 164.355H108.604C108.311 164.355 108.066 164.6 108.066 164.893C108.066 165.043 108.122 165.152 108.182 165.226C108.215 165.249 108.245 165.273 108.275 165.299C110.2 166.94 111.719 168.921 112.789 171.187C113.171 171.991 112.827 172.951 112.022 173.334C111.21 173.716 110.258 173.368 109.878 172.565C109.027 170.768 107.834 169.192 106.326 167.872C106.27 167.834 106.212 167.793 106.163 167.75C105.323 167.035 104.844 165.993 104.844 164.893C104.844 162.819 106.53 161.133 108.604 161.133Z" fill="#F0F0F0"/>
<path d="M110.215 178.32C117.915 178.32 124.18 184.585 124.18 192.285C124.18 199.985 117.915 206.25 110.215 206.25C102.515 206.25 96.25 199.985 96.25 192.285C96.25 184.585 102.515 178.32 110.215 178.32ZM110.215 203.027C116.138 203.027 120.957 198.208 120.957 192.285C120.957 186.362 116.138 181.543 110.215 181.543C104.292 181.543 99.4727 186.362 99.4727 192.285C99.4727 198.208 104.292 203.027 110.215 203.027Z" fill="#F0F0F0"/>
<path d="M109.678 185.84C110.567 185.84 111.289 186.562 111.289 187.451V194.434H112.363C113.253 194.434 113.975 195.155 113.975 196.045C113.975 196.934 113.253 197.656 112.363 197.656H109.678C108.788 197.656 108.066 196.934 108.066 196.045V187.451C108.066 186.562 108.788 185.84 109.678 185.84Z" fill="#F0F0F0"/>
</g>
<g opacity="0.5" clip-path="url(#clip4_965_5567)">
<path d="M40.3906 79.0625C44.8314 79.0625 48.4473 82.6762 48.4473 87.1191C48.4473 88.0086 47.7254 88.7305 46.8359 88.7305C45.9465 88.7305 45.2246 88.0086 45.2246 87.1191C45.2246 84.4529 43.0547 82.2852 40.3906 82.2852C37.7266 82.2852 35.5566 84.4529 35.5566 87.1191C35.5566 88.0086 34.8348 88.7305 33.9453 88.7305C33.0559 88.7305 32.334 88.0086 32.334 87.1191C32.334 82.6762 35.9498 79.0625 40.3906 79.0625Z" fill="#F0F0F0"/>
<path d="M22.666 85.5077H58.1152C60.1885 85.5077 61.875 87.1943 61.875 89.2675C61.875 90.3675 61.3959 91.4095 60.5602 92.1249C60.5064 92.1722 60.4484 92.2152 60.3883 92.2538C57.2344 95.006 55.4297 98.9656 55.4297 103.146V109.141C55.4297 116.138 50.6881 122.145 43.899 123.75C43.0311 123.95 42.1631 123.419 41.959 122.551C41.7549 121.685 42.292 120.817 43.1557 120.613C48.4859 119.354 52.207 114.636 52.207 109.141V103.146C52.207 97.9558 54.4822 93.0445 58.4439 89.6736C58.4762 89.6478 58.5041 89.6242 58.5385 89.6005C58.5965 89.5275 58.6523 89.4158 58.6523 89.2675C58.6523 88.9753 58.4074 88.7304 58.1152 88.7304H22.666C22.3738 88.7304 22.1289 88.9753 22.1289 89.2675C22.1289 89.4179 22.1848 89.5275 22.2449 89.6005C22.2771 89.6242 22.3072 89.6478 22.3373 89.6736C24.2623 91.315 25.7812 93.2958 26.8512 95.5624C27.2336 96.366 26.8898 97.3263 26.0842 97.7087C25.2721 98.0911 24.3203 97.7431 23.94 96.9396C23.0893 95.1435 21.8969 93.5665 20.3887 92.2474C20.3328 92.2087 20.2748 92.1679 20.2254 92.1249C19.3853 91.4095 18.9062 90.3675 18.9062 89.2675C18.9062 87.1943 20.5928 85.5077 22.666 85.5077Z" fill="#F0F0F0"/>
<path d="M24.2773 102.695C31.9773 102.695 38.2422 108.96 38.2422 116.66C38.2422 124.36 31.9773 130.625 24.2773 130.625C16.5773 130.625 10.3125 124.36 10.3125 116.66C10.3125 108.96 16.5773 102.695 24.2773 102.695ZM24.2773 127.402C30.2006 127.402 35.0195 122.583 35.0195 116.66C35.0195 110.737 30.2006 105.918 24.2773 105.918C18.3541 105.918 13.5352 110.737 13.5352 116.66C13.5352 122.583 18.3541 127.402 24.2773 127.402Z" fill="#F0F0F0"/>
<path d="M23.7402 110.215C24.6297 110.215 25.3516 110.937 25.3516 111.826V118.809H26.4258C27.3152 118.809 28.0371 119.53 28.0371 120.42C28.0371 121.309 27.3152 122.031 26.4258 122.031H23.7402C22.8508 122.031 22.1289 121.309 22.1289 120.42V111.826C22.1289 110.937 22.8508 110.215 23.7402 110.215Z" fill="#F0F0F0"/>
</g>
<g opacity="0.5" clip-path="url(#clip5_965_5567)">
<path d="M10.5352 13.3127L14.1289 23.7714C12.3967 27.3125 11.4812 31.2508 11.4751 35.2133C11.4644 42.1034 14.1301 48.618 18.9813 53.5571C23.8334 58.4972 30.2991 61.2781 37.1876 61.3872C44.3304 61.5001 51.0443 58.7832 56.0919 53.7358C60.959 48.8688 63.6585 42.4525 63.7439 35.596C68.541 31.9842 71.3724 26.3532 71.363 20.3387C71.3586 17.5241 70.7251 14.7263 69.5247 12.1963L72 4.99266C72.4256 3.75432 72.1147 2.40974 71.1888 1.48379C70.5372 0.832047 69.678 0.485086 68.7945 0.485086C68.4228 0.485086 68.0467 0.546475 67.6799 0.672521L60.4762 3.14789C57.9462 1.94749 55.1484 1.314 52.3338 1.30952C52.3236 1.30952 52.314 1.30952 52.3038 1.30952C46.1997 1.30977 40.5258 4.21415 36.9272 9.12875C33.1825 9.22736 29.4773 10.1339 26.1277 11.7725L15.6689 8.17863C15.2331 8.02889 14.7862 7.9559 14.3445 7.9559C13.2946 7.9559 12.2736 8.36825 11.4991 9.14289C10.3989 10.2432 10.0296 11.841 10.5352 13.3127ZM52.3041 4.99254C52.3119 4.99254 52.3203 4.99254 52.3281 4.99254C54.8193 4.99629 57.2932 5.61045 59.4819 6.76843C59.932 7.00638 60.4603 7.04759 60.9416 6.88227L68.3283 4.34406L65.7901 11.7306C65.6247 12.212 65.6658 12.7403 65.9039 13.1903C67.0619 15.3791 67.676 17.8529 67.6799 20.3442C67.6861 24.3515 66.1272 28.1497 63.4012 30.9938C62.5108 25.5657 59.9238 20.5637 55.9137 16.6249C51.9333 12.7153 46.9299 10.2261 41.5313 9.41226C44.3819 6.60263 48.2244 4.99254 52.3041 4.99254ZM14.1037 11.7472C14.2084 11.6424 14.3327 11.6139 14.4724 11.662L25.6689 15.5094C25.8633 15.5762 26.0656 15.6093 26.2672 15.6093C26.5644 15.6093 26.8605 15.5374 27.1284 15.3955C30.3252 13.7044 33.9377 12.8074 37.5755 12.8019C37.5874 12.8019 37.5983 12.8019 37.6103 12.8019C49.7996 12.8019 59.8679 22.7036 60.061 34.89C60.1583 41.0273 57.8238 46.7954 53.4875 51.1316C49.1513 55.4678 43.3823 57.8015 37.2458 57.7048C25.0477 57.5113 15.1392 47.4244 15.1581 35.2191C15.1638 31.5813 16.0606 27.9688 17.7516 24.7722C17.9897 24.3222 18.0308 23.7939 17.8655 23.3125L14.0182 12.116C13.9702 11.9759 13.999 11.8517 14.1037 11.7472Z" fill="#F0F0F0"/>
<path d="M26.6403 45.0146H48.5818C49.5989 45.0146 50.4233 44.1901 50.4233 43.1731C50.4233 42.1561 49.5988 41.3316 48.5818 41.3316H26.6403C25.6233 41.3316 24.7988 42.1562 24.7988 43.1731C24.7988 44.1901 25.6233 45.0146 26.6403 45.0146Z" fill="#F0F0F0"/>
<path d="M26.6403 37.4414H48.5818C49.5989 37.4414 50.4233 36.6168 50.4233 35.5999C50.4233 34.5829 49.5988 33.7584 48.5818 33.7584H26.6403C25.6233 33.7584 24.7988 34.5829 24.7988 35.5999C24.7988 36.6168 25.6233 37.4414 26.6403 37.4414Z" fill="#F0F0F0"/>
<path d="M35.0862 29.8672H48.5818C49.5989 29.8672 50.4233 29.0426 50.4233 28.0257C50.4233 27.0086 49.5988 26.1842 48.5818 26.1842H35.0863C34.0692 26.1842 33.2448 27.0087 33.2448 28.0257C33.2448 29.0426 34.0691 29.8672 35.0862 29.8672Z" fill="#F0F0F0"/>
</g>
<g opacity="0.5" clip-path="url(#clip6_965_5567)">
<mask id="mask0_965_5567" style="mask-type:luminance" maskUnits="userSpaceOnUse" x="75" y="65" width="46" height="45">
<path d="M75.625 110H120.312V65.3125H75.625V110Z" fill="white"/>
<path d="M95.7869 87.6566C95.7869 86.4515 96.7638 85.4746 97.9689 85.4746C99.174 85.4746 100.151 86.4515 100.151 87.6566C100.151 88.8617 99.174 89.8386 97.9689 89.8386C96.7638 89.8386 95.7869 88.8617 95.7869 87.6566Z" fill="white"/>
<path d="M87.0588 87.6566C87.0588 86.4515 88.0358 85.4746 89.2408 85.4746C90.4459 85.4746 91.4229 86.4515 91.4229 87.6566C91.4229 88.8617 90.4459 89.8386 89.2408 89.8386C88.0358 89.8386 87.0588 88.8617 87.0588 87.6566Z" fill="white"/>
<path d="M104.515 87.6566C104.515 86.4515 105.492 85.4746 106.697 85.4746C107.902 85.4746 108.879 86.4515 108.879 87.6566C108.879 88.8617 107.902 89.8386 106.697 89.8386C105.492 89.8386 104.515 88.8617 104.515 87.6566Z" fill="white"/>
</mask>
<g mask="url(#mask0_965_5567)">
<mask id="mask1_965_5567" style="mask-type:luminance" maskUnits="userSpaceOnUse" x="75" y="65" width="46" height="45">
<path d="M120.312 110H75.625V65.3125H120.312V110Z" fill="white"/>
</mask>
<g mask="url(#mask1_965_5567)">
<path d="M97.9688 108.255C109.345 108.255 118.567 99.0328 118.567 87.6567C118.567 83.6519 117.423 79.9148 115.445 76.7522L118.567 67.0586L108.873 70.1803C105.711 68.2028 101.974 67.0586 97.9688 67.0586C86.5927 67.0586 77.3706 76.2807 77.3706 87.6567C77.3706 99.0328 86.5927 108.255 97.9688 108.255Z" stroke="#F0F0F0" stroke-width="1.5" stroke-miterlimit="10" stroke-linecap="round" stroke-linejoin="round"/>
<path d="M95.7869 87.6566C95.7869 86.4515 96.7638 85.4746 97.9689 85.4746C99.174 85.4746 100.151 86.4515 100.151 87.6566C100.151 88.8617 99.174 89.8386 97.9689 89.8386C96.7638 89.8386 95.7869 88.8617 95.7869 87.6566Z" fill="#F0F0F0"/>
<path d="M87.0588 87.6566C87.0588 86.4515 88.0358 85.4746 89.2408 85.4746C90.4459 85.4746 91.4229 86.4515 91.4229 87.6566C91.4229 88.8617 90.4459 89.8386 89.2408 89.8386C88.0358 89.8386 87.0588 88.8617 87.0588 87.6566Z" fill="#F0F0F0"/>
<path d="M104.515 87.6566C104.515 86.4515 105.492 85.4746 106.697 85.4746C107.902 85.4746 108.879 86.4515 108.879 87.6566C108.879 88.8617 107.902 89.8386 106.697 89.8386C105.492 89.8386 104.515 88.8617 104.515 87.6566Z" fill="#F0F0F0"/>
</g>
</g>
</g>
<defs>
<clipPath id="clip0_965_5567">
<rect width="61.875" height="61.875" fill="white" transform="matrix(-1 0 0 -1 161.562 137.5)"/>
</clipPath>
<clipPath id="clip1_965_5567">
<rect width="82.5" height="82.5" fill="white" transform="matrix(-1 0 0 -1 82.5 220)"/>
</clipPath>
<clipPath id="clip2_965_5567">
<rect width="61.875" height="61.875" fill="white" transform="matrix(-1 0 0 -1 230.312 206.25)"/>
</clipPath>
<clipPath id="clip3_965_5567">
<rect width="51.5625" height="51.5625" fill="white" transform="matrix(-1 0 0 -1 147.812 206.25)"/>
</clipPath>
<clipPath id="clip4_965_5567">
<rect width="51.5625" height="51.5625" fill="white" transform="matrix(-1 0 0 -1 61.875 130.625)"/>
</clipPath>
<clipPath id="clip5_965_5567">
<rect width="61.875" height="61.875" fill="white" transform="matrix(-1 0 0 -1 72.1875 61.875)"/>
</clipPath>
<clipPath id="clip6_965_5567">
<rect width="44.6875" height="44.6875" fill="white" transform="matrix(-1 0 0 -1 120.312 110)"/>
</clipPath>
</defs>
</svg>
