<svg width="231" height="220" viewBox="0 0 231 220" fill="none" xmlns="http://www.w3.org/2000/svg">
<g opacity="0.5" clip-path="url(#clip0_965_5566)">
<path fill-rule="evenodd" clip-rule="evenodd" d="M75.1953 130.84C77.0773 130.84 78.8821 131.587 80.2098 132.917C81.5375 134.246 82.2852 136.05 82.2852 137.93V138.567C82.2852 139.779 83.5742 139.863 83.5742 139.863C83.7031 139.863 83.8321 139.844 83.9545 139.807C89.794 138.01 91.4826 134.856 93.4098 130.84H124.18C127.737 130.84 130.625 127.954 130.625 124.395C130.625 116.469 130.625 101.382 130.625 93.457C130.625 89.8973 127.737 87.0117 124.18 87.0117C112.958 87.0117 86.4166 87.0117 75.1953 87.0117C71.6375 87.0117 68.75 89.8973 68.75 93.457V124.395C68.75 127.954 71.6375 130.84 75.1953 130.84ZM84.7923 136.758C84.5345 134.625 83.5678 132.628 82.0339 131.093C80.2163 129.28 77.7605 128.262 75.1953 128.262C73.0619 128.262 71.3281 126.531 71.3281 124.395C71.3281 116.469 71.3281 101.382 71.3281 93.457C71.3281 91.3211 73.0619 89.5898 75.1953 89.5898H124.18C126.313 89.5898 128.047 91.3211 128.047 93.457V124.395C128.047 126.531 126.313 128.262 124.18 128.262H92.5977C92.1014 128.262 91.6502 128.547 91.4375 128.994C89.8519 132.297 88.7304 135.051 84.7923 136.758ZM82.9297 117.949H108.711C109.42 117.949 110 117.372 110 116.66C110 115.949 109.42 115.371 108.711 115.371H82.9297C82.2207 115.371 81.6406 115.949 81.6406 116.66C81.6406 117.372 82.2207 117.949 82.9297 117.949ZM82.9297 110.215H116.445C117.154 110.215 117.734 109.637 117.734 108.926C117.734 108.214 117.154 107.637 116.445 107.637H82.9297C82.2207 107.637 81.6406 108.214 81.6406 108.926C81.6406 109.637 82.2207 110.215 82.9297 110.215ZM82.9297 102.48H116.445C117.154 102.48 117.734 101.903 117.734 101.191C117.734 100.48 117.154 99.9023 116.445 99.9023H82.9297C82.2207 99.9023 81.6406 100.48 81.6406 101.191C81.6406 101.903 82.2207 102.48 82.9297 102.48Z" fill="#F0F0F0"/>
</g>
<g opacity="0.5" clip-path="url(#clip1_965_5566)">
<path fill-rule="evenodd" clip-rule="evenodd" d="M156.406 64.4531C158.916 64.4531 161.322 65.4491 163.092 67.222C164.863 68.9949 165.859 71.3995 165.859 73.9063V74.7562C165.859 76.3718 167.578 76.4844 167.578 76.4844C167.75 76.4844 167.922 76.4586 168.085 76.4088C175.871 74.0128 178.123 69.8079 180.692 64.4531H221.719C226.462 64.4531 230.312 60.6057 230.312 55.8594C230.312 45.2925 230.312 25.1763 230.312 14.6094C230.312 9.86305 226.462 6.01562 221.719 6.01562C206.757 6.01562 171.368 6.01562 156.406 6.01562C151.663 6.01562 147.812 9.86305 147.812 14.6094V55.8594C147.812 60.6057 151.663 64.4531 156.406 64.4531ZM169.202 72.3439C168.859 69.5002 167.57 66.837 165.524 64.7909C163.101 62.3734 159.827 61.0156 156.406 61.0156C153.562 61.0156 151.25 58.7074 151.25 55.8594C151.25 45.2925 151.25 25.1763 151.25 14.6094C151.25 11.7614 153.562 9.45313 156.406 9.45313H221.719C224.563 9.45313 226.875 11.7614 226.875 14.6094V55.8594C226.875 58.7074 224.563 61.0156 221.719 61.0156H179.609C178.948 61.0156 178.346 61.3955 178.062 61.9919C175.948 66.3962 174.453 70.0674 169.202 72.3439ZM166.719 47.2656H201.094C202.039 47.2656 202.812 46.4956 202.812 45.5469C202.812 44.5981 202.039 43.8281 201.094 43.8281H166.719C165.773 43.8281 165 44.5981 165 45.5469C165 46.4956 165.773 47.2656 166.719 47.2656ZM166.719 36.9531H211.406C212.352 36.9531 213.125 36.1831 213.125 35.2344C213.125 34.2856 212.352 33.5156 211.406 33.5156H166.719C165.773 33.5156 165 34.2856 165 35.2344C165 36.1831 165.773 36.9531 166.719 36.9531ZM166.719 26.6406H211.406C212.352 26.6406 213.125 25.8706 213.125 24.9219C213.125 23.9731 212.352 23.2031 211.406 23.2031H166.719C165.773 23.2031 165 23.9731 165 24.9219C165 25.8706 165.773 26.6406 166.719 26.6406Z" fill="#F0F0F0"/>
</g>
<g opacity="0.5" clip-path="url(#clip2_965_5566)">
<path fill-rule="evenodd" clip-rule="evenodd" d="M6.44531 62.0899C8.32734 62.0899 10.1321 62.8369 11.4598 64.1665C12.7875 65.4962 13.5352 67.2996 13.5352 69.1797V69.8171C13.5352 71.0289 14.8242 71.1133 14.8242 71.1133C14.9531 71.1133 15.0821 71.094 15.2045 71.0566C21.044 69.2596 22.7326 66.1059 24.6598 62.0899H55.4297C58.9875 62.0899 61.875 59.2043 61.875 55.6445C61.875 47.7194 61.875 32.6322 61.875 24.707C61.875 21.1473 58.9875 18.2617 55.4297 18.2617C44.2084 18.2617 17.6666 18.2617 6.44531 18.2617C2.8875 18.2617 0 21.1473 0 24.707V55.6445C0 59.2043 2.8875 62.0899 6.44531 62.0899ZM16.0423 68.0079C15.7845 65.8752 14.8178 63.8778 13.2839 62.3432C11.4663 60.5301 9.01055 59.5117 6.44531 59.5117C4.31191 59.5117 2.57812 57.7805 2.57812 55.6445C2.57812 47.7194 2.57812 32.6322 2.57812 24.707C2.57812 22.5711 4.31191 20.8398 6.44531 20.8398H55.4297C57.5631 20.8398 59.2969 22.5711 59.2969 24.707V55.6445C59.2969 57.7805 57.5631 59.5117 55.4297 59.5117H23.8477C23.3514 59.5117 22.9002 59.7966 22.6875 60.2439C21.1019 63.5471 19.9804 66.3006 16.0423 68.0079ZM14.1797 49.1992H39.9609C40.6699 49.1992 41.25 48.6217 41.25 47.9102C41.25 47.1986 40.6699 46.6211 39.9609 46.6211H14.1797C13.4707 46.6211 12.8906 47.1986 12.8906 47.9102C12.8906 48.6217 13.4707 49.1992 14.1797 49.1992ZM14.1797 41.4648H47.6953C48.4043 41.4648 48.9844 40.8873 48.9844 40.1758C48.9844 39.4642 48.4043 38.8867 47.6953 38.8867H14.1797C13.4707 38.8867 12.8906 39.4642 12.8906 40.1758C12.8906 40.8873 13.4707 41.4648 14.1797 41.4648ZM14.1797 33.7305H47.6953C48.4043 33.7305 48.9844 33.153 48.9844 32.4414C48.9844 31.7298 48.4043 31.1523 47.6953 31.1523H14.1797C13.4707 31.1523 12.8906 31.7298 12.8906 32.4414C12.8906 33.153 13.4707 33.7305 14.1797 33.7305Z" fill="#F0F0F0"/>
</g>
<g opacity="0.5" clip-path="url(#clip3_965_5566)">
<path d="M103.984 65.3125C99.5436 65.3125 95.9277 61.6988 95.9277 57.2559C95.9277 56.3664 96.6496 55.6445 97.5391 55.6445C98.4285 55.6445 99.1504 56.3664 99.1504 57.2559C99.1504 59.9221 101.32 62.0898 103.984 62.0898C106.648 62.0898 108.818 59.9221 108.818 57.2559C108.818 56.3664 109.54 55.6445 110.43 55.6445C111.319 55.6445 112.041 56.3664 112.041 57.2559C112.041 61.6988 108.425 65.3125 103.984 65.3125Z" fill="#F0F0F0"/>
<path d="M121.709 58.8673H86.2598C84.1865 58.8673 82.5 57.1807 82.5 55.1075C82.5 54.0075 82.9791 52.9655 83.8148 52.2501C83.8686 52.2028 83.9266 52.1598 83.9867 52.1212C87.1406 49.369 88.9453 45.4094 88.9453 41.2286V35.2344C88.9453 28.237 93.6869 22.2299 100.476 20.6251C101.344 20.4253 102.212 20.9559 102.416 21.8239C102.62 22.6897 102.083 23.5577 101.219 23.7618C95.8891 25.0208 92.168 29.7387 92.168 35.2344V41.2286C92.168 46.4192 89.8928 51.3305 85.9311 54.7014C85.8988 54.7272 85.8709 54.7508 85.8365 54.7745C85.7785 54.8475 85.7227 54.9592 85.7227 55.1075C85.7227 55.3997 85.9676 55.6446 86.2598 55.6446H121.709C122.001 55.6446 122.246 55.3997 122.246 55.1075C122.246 54.9571 122.19 54.8475 122.13 54.7745C122.098 54.7508 122.068 54.7272 122.038 54.7014C120.113 53.06 118.594 51.0792 117.524 48.8126C117.141 48.009 117.485 47.0487 118.291 46.6663C119.103 46.2839 120.055 46.6319 120.435 47.4354C121.286 49.2315 122.478 50.8085 123.986 52.1276C124.042 52.1663 124.1 52.2071 124.15 52.2501C124.99 52.9655 125.469 54.0075 125.469 55.1075C125.469 57.1807 123.782 58.8673 121.709 58.8673Z" fill="#F0F0F0"/>
<path d="M120.098 41.6797C112.398 41.6797 106.133 35.4148 106.133 27.7148C106.133 20.0148 112.398 13.75 120.098 13.75C127.798 13.75 134.062 20.0148 134.062 27.7148C134.062 35.4148 127.798 41.6797 120.098 41.6797ZM120.098 16.9727C114.174 16.9727 109.355 21.7916 109.355 27.7148C109.355 33.6381 114.174 38.457 120.098 38.457C126.021 38.457 130.84 33.6381 130.84 27.7148C130.84 21.7916 126.021 16.9727 120.098 16.9727Z" fill="#F0F0F0"/>
<path d="M120.635 34.1602C119.745 34.1602 119.023 33.4383 119.023 32.5488V25.5664H117.949C117.06 25.5664 116.338 24.8445 116.338 23.9551C116.338 23.0656 117.06 22.3438 117.949 22.3438H120.635C121.524 22.3438 122.246 23.0656 122.246 23.9551V32.5488C122.246 33.4383 121.524 34.1602 120.635 34.1602Z" fill="#F0F0F0"/>
</g>
<g opacity="0.5" clip-path="url(#clip4_965_5566)">
<path d="M189.922 140.938C185.481 140.938 181.865 137.324 181.865 132.881C181.865 131.991 182.587 131.27 183.477 131.27C184.366 131.27 185.088 131.991 185.088 132.881C185.088 135.547 187.258 137.715 189.922 137.715C192.586 137.715 194.756 135.547 194.756 132.881C194.756 131.991 195.478 131.27 196.367 131.27C197.257 131.27 197.979 131.991 197.979 132.881C197.979 137.324 194.363 140.938 189.922 140.938Z" fill="#F0F0F0"/>
<path d="M207.646 134.492H172.197C170.124 134.492 168.438 132.806 168.438 130.732C168.438 129.632 168.917 128.59 169.752 127.875C169.806 127.828 169.864 127.785 169.924 127.746C173.078 124.994 174.883 121.034 174.883 116.854V110.859C174.883 103.862 179.624 97.8549 186.413 96.2501C187.281 96.0503 188.149 96.5809 188.354 97.4489C188.558 98.3147 188.021 99.1827 187.157 99.3868C181.827 100.646 178.105 105.364 178.105 110.859V116.854C178.105 122.044 175.83 126.956 171.869 130.326C171.836 130.352 171.808 130.376 171.774 130.399C171.716 130.473 171.66 130.584 171.66 130.732C171.66 131.025 171.905 131.27 172.197 131.27H207.646C207.939 131.27 208.184 131.025 208.184 130.732C208.184 130.582 208.128 130.473 208.068 130.399C208.035 130.376 208.005 130.352 207.975 130.326C206.05 128.685 204.531 126.704 203.461 124.438C203.079 123.634 203.423 122.674 204.228 122.291C205.04 121.909 205.992 122.257 206.372 123.06C207.223 124.857 208.416 126.433 209.924 127.753C209.98 127.791 210.038 127.832 210.087 127.875C210.927 128.59 211.406 129.632 211.406 130.732C211.406 132.806 209.72 134.492 207.646 134.492Z" fill="#F0F0F0"/>
<path d="M206.035 117.305C198.335 117.305 192.07 111.04 192.07 103.34C192.07 95.6398 198.335 89.375 206.035 89.375C213.735 89.375 220 95.6398 220 103.34C220 111.04 213.735 117.305 206.035 117.305ZM206.035 92.5977C200.112 92.5977 195.293 97.4166 195.293 103.34C195.293 109.263 200.112 114.082 206.035 114.082C211.958 114.082 216.777 109.263 216.777 103.34C216.777 97.4166 211.958 92.5977 206.035 92.5977Z" fill="#F0F0F0"/>
<path d="M206.572 109.785C205.683 109.785 204.961 109.063 204.961 108.174V101.191H203.887C202.997 101.191 202.275 100.47 202.275 99.5801C202.275 98.6906 202.997 97.9688 203.887 97.9688H206.572C207.462 97.9688 208.184 98.6906 208.184 99.5801V108.174C208.184 109.063 207.462 109.785 206.572 109.785Z" fill="#F0F0F0"/>
</g>
<g opacity="0.5" clip-path="url(#clip5_965_5566)">
<path d="M219.777 206.687L216.184 196.229C217.916 192.687 218.831 188.749 218.837 184.787C218.848 177.897 216.182 171.382 211.331 166.443C206.479 161.503 200.013 158.722 193.125 158.613C185.982 158.5 179.268 161.217 174.221 166.264C169.354 171.131 166.654 177.548 166.569 184.404C161.772 188.016 158.94 193.647 158.949 199.661C158.954 202.476 159.587 205.274 160.788 207.804L158.312 215.007C157.887 216.246 158.198 217.59 159.124 218.516C159.775 219.168 160.634 219.515 161.518 219.515C161.89 219.515 162.266 219.454 162.633 219.327L169.836 216.852C172.366 218.053 175.164 218.686 177.979 218.69C177.989 218.69 177.999 218.69 178.009 218.69C184.113 218.69 189.787 215.786 193.385 210.871C197.13 210.773 200.835 209.866 204.185 208.228L214.644 211.821C215.079 211.971 215.526 212.044 215.968 212.044C217.018 212.044 218.039 211.632 218.813 210.857C219.914 209.757 220.283 208.159 219.777 206.687ZM178.008 215.007C178.001 215.007 177.992 215.007 177.984 215.007C175.493 215.004 173.019 214.39 170.831 213.232C170.381 212.994 169.852 212.952 169.371 213.118L161.984 215.656L164.522 208.269C164.688 207.788 164.647 207.26 164.409 206.81C163.251 204.621 162.636 202.147 162.633 199.656C162.626 195.649 164.185 191.85 166.911 189.006C167.802 194.434 170.389 199.436 174.399 203.375C178.379 207.285 183.383 209.774 188.781 210.588C185.931 213.397 182.088 215.007 178.008 215.007ZM216.209 208.253C216.104 208.358 215.98 208.386 215.84 208.338L204.644 204.491C204.449 204.424 204.247 204.391 204.045 204.391C203.748 204.391 203.452 204.463 203.184 204.604C199.987 206.296 196.375 207.193 192.737 207.198C192.725 207.198 192.714 207.198 192.702 207.198C180.513 207.198 170.445 197.296 170.251 185.11C170.154 178.973 172.489 173.205 176.825 168.868C181.161 164.532 186.93 162.198 193.067 162.295C205.265 162.489 215.173 172.576 215.154 184.781C215.149 188.419 214.252 192.031 212.561 195.228C212.323 195.678 212.282 196.206 212.447 196.687L216.294 207.884C216.342 208.024 216.313 208.148 216.209 208.253Z" fill="#F0F0F0"/>
<path d="M203.672 174.985H181.731C180.714 174.985 179.889 175.81 179.889 176.827C179.889 177.844 180.714 178.668 181.731 178.668H203.672C204.689 178.668 205.514 177.844 205.514 176.827C205.514 175.81 204.689 174.985 203.672 174.985Z" fill="#F0F0F0"/>
<path d="M203.672 182.559H181.731C180.714 182.559 179.889 183.383 179.889 184.4C179.889 185.417 180.714 186.242 181.731 186.242H203.672C204.689 186.242 205.514 185.417 205.514 184.4C205.514 183.383 204.689 182.559 203.672 182.559Z" fill="#F0F0F0"/>
<path d="M195.226 190.133H181.731C180.714 190.133 179.889 190.957 179.889 191.974C179.889 192.991 180.714 193.816 181.731 193.816H195.226C196.243 193.816 197.068 192.991 197.068 191.974C197.068 190.957 196.243 190.133 195.226 190.133Z" fill="#F0F0F0"/>
</g>
<g opacity="0.5" clip-path="url(#clip6_965_5566)">
<mask id="mask0_965_5566" style="mask-type:luminance" maskUnits="userSpaceOnUse" x="110" y="110" width="45" height="45">
<path d="M154.688 110H110V154.688H154.688V110Z" fill="white"/>
<path d="M134.526 132.343C134.526 133.548 133.549 134.525 132.344 134.525C131.139 134.525 130.162 133.548 130.162 132.343C130.162 131.138 131.139 130.161 132.344 130.161C133.549 130.161 134.526 131.138 134.526 132.343Z" fill="white"/>
<path d="M143.254 132.343C143.254 133.548 142.277 134.525 141.072 134.525C139.867 134.525 138.89 133.548 138.89 132.343C138.89 131.138 139.867 130.161 141.072 130.161C142.277 130.161 143.254 131.138 143.254 132.343Z" fill="white"/>
<path d="M125.798 132.343C125.798 133.548 124.821 134.525 123.616 134.525C122.411 134.525 121.434 133.548 121.434 132.343C121.434 131.138 122.411 130.161 123.616 130.161C124.821 130.161 125.798 131.138 125.798 132.343Z" fill="white"/>
</mask>
<g mask="url(#mask0_965_5566)">
<mask id="mask1_965_5566" style="mask-type:luminance" maskUnits="userSpaceOnUse" x="110" y="110" width="45" height="45">
<path d="M110 110H154.687V154.688H110V110Z" fill="white"/>
</mask>
<g mask="url(#mask1_965_5566)">
<path d="M132.344 111.745C120.968 111.745 111.746 120.967 111.746 132.343C111.746 136.348 112.89 140.085 114.867 143.248L111.746 152.941L121.439 149.82C124.602 151.797 128.339 152.941 132.344 152.941C143.72 152.941 152.942 143.719 152.942 132.343C152.942 120.967 143.72 111.745 132.344 111.745Z" stroke="#F0F0F0" stroke-width="1.5" stroke-miterlimit="10" stroke-linecap="round" stroke-linejoin="round"/>
<path d="M134.526 132.343C134.526 133.548 133.549 134.525 132.344 134.525C131.139 134.525 130.162 133.548 130.162 132.343C130.162 131.138 131.139 130.161 132.344 130.161C133.549 130.161 134.526 131.138 134.526 132.343Z" fill="#F0F0F0"/>
<path d="M143.254 132.343C143.254 133.548 142.277 134.525 141.072 134.525C139.867 134.525 138.89 133.548 138.89 132.343C138.89 131.138 139.867 130.161 141.072 130.161C142.277 130.161 143.254 131.138 143.254 132.343Z" fill="#F0F0F0"/>
<path d="M125.798 132.343C125.798 133.548 124.821 134.525 123.616 134.525C122.411 134.525 121.434 133.548 121.434 132.343C121.434 131.138 122.411 130.161 123.616 130.161C124.821 130.161 125.798 131.138 125.798 132.343Z" fill="#F0F0F0"/>
</g>
</g>
</g>
<defs>
<clipPath id="clip0_965_5566">
<rect width="61.875" height="61.875" fill="white" transform="translate(68.75 82.5)"/>
</clipPath>
<clipPath id="clip1_965_5566">
<rect width="82.5" height="82.5" fill="white" transform="translate(147.812)"/>
</clipPath>
<clipPath id="clip2_965_5566">
<rect width="61.875" height="61.875" fill="white" transform="translate(0 13.75)"/>
</clipPath>
<clipPath id="clip3_965_5566">
<rect width="51.5625" height="51.5625" fill="white" transform="translate(82.5 13.75)"/>
</clipPath>
<clipPath id="clip4_965_5566">
<rect width="51.5625" height="51.5625" fill="white" transform="translate(168.438 89.375)"/>
</clipPath>
<clipPath id="clip5_965_5566">
<rect width="61.875" height="61.875" fill="white" transform="translate(158.125 158.125)"/>
</clipPath>
<clipPath id="clip6_965_5566">
<rect width="44.6875" height="44.6875" fill="white" transform="translate(110 110)"/>
</clipPath>
</defs>
</svg>
