<svg width="40" height="40" viewBox="0 0 40 40" fill="none" xmlns="http://www.w3.org/2000/svg">
<path d="M33.0988 25.2202C33.3262 25.053 33.5055 24.8287 33.6185 24.57C33.7316 24.3114 33.7744 24.0275 33.7427 23.747C33.711 23.4665 33.6058 23.1993 33.4379 22.9724C33.2699 22.7456 33.0451 22.567 32.7861 22.4548V20.249L31.4966 20.7971V22.4548C31.2374 22.567 31.0124 22.7455 30.8444 22.9725C30.6763 23.1994 30.5711 23.4667 30.5394 23.7473C30.5077 24.0279 30.5506 24.3119 30.6637 24.5706C30.7769 24.8293 30.9563 25.0536 31.1838 25.2208C30.9814 25.3695 30.8168 25.5637 30.7031 25.7877C30.5894 26.0117 30.5299 26.2592 30.5294 26.5104V28.1216C30.5294 28.2926 30.5973 28.4566 30.7183 28.5776C30.8392 28.6985 31.0032 28.7664 31.1742 28.7664H33.1085C33.2795 28.7664 33.4435 28.6985 33.5644 28.5776C33.6853 28.4566 33.7532 28.2926 33.7532 28.1216V26.5097C33.7527 26.2586 33.6932 26.011 33.5795 25.787C33.4659 25.5631 33.3012 25.3689 33.0988 25.2202Z" fill="url(#paint0_linear_505_4460)"/>
<path d="M29.5655 21.6152V26.3865C29.569 26.9412 29.4282 27.4872 29.1569 27.971C28.8856 28.4549 28.4932 28.8598 28.0181 29.1461C25.5528 30.586 22.7491 31.3447 19.8941 31.3447C17.0392 31.3447 14.2355 30.586 11.7701 29.1461C11.2951 28.8598 10.9026 28.4549 10.6314 27.971C10.3601 27.4872 10.2192 26.9412 10.2227 26.3865V21.6152L18.1339 24.9616C18.6913 25.1957 19.2897 25.3162 19.8941 25.3162C20.4986 25.3162 21.097 25.1957 21.6543 24.9616L29.5655 21.6152Z" fill="url(#paint1_linear_505_4460)"/>
<path d="M34.0992 14.7342L21.1473 9.25368C20.7493 9.08625 20.3218 9 19.89 9C19.4582 9 19.0307 9.08625 18.6327 9.25368L5.68076 14.7342C5.33068 14.8823 5.03199 15.1302 4.82199 15.4471C4.61199 15.7639 4.5 16.1356 4.5 16.5157C4.5 16.8958 4.61199 17.2675 4.82199 17.5843C5.03199 17.9012 5.33068 18.1491 5.68076 18.2972L18.6327 23.7777C19.0307 23.9453 19.4582 24.0317 19.89 24.0317C20.3218 24.0317 20.7493 23.9453 21.1473 23.7777L34.0992 18.2972C34.4493 18.1491 34.748 17.9012 34.958 17.5843C35.168 17.2675 35.28 16.8958 35.28 16.5157C35.28 16.1356 35.168 15.7639 34.958 15.4471C34.748 15.1302 34.4493 14.8823 34.0992 14.7342Z" fill="url(#paint2_linear_505_4460)"/>
<defs>
<linearGradient id="paint0_linear_505_4460" x1="33.7532" y1="24.5077" x2="30.5292" y2="24.5077" gradientUnits="userSpaceOnUse">
<stop stop-color="#FF6B32"/>
<stop offset="0.5" stop-color="#F09819"/>
<stop offset="1" stop-color="#FF6932"/>
</linearGradient>
<linearGradient id="paint1_linear_505_4460" x1="29.5656" y1="26.48" x2="10.2227" y2="26.48" gradientUnits="userSpaceOnUse">
<stop stop-color="#FF6B32"/>
<stop offset="0.5" stop-color="#F09819"/>
<stop offset="1" stop-color="#FF6932"/>
</linearGradient>
<linearGradient id="paint2_linear_505_4460" x1="35.28" y1="16.5159" x2="4.5" y2="16.5159" gradientUnits="userSpaceOnUse">
<stop stop-color="#FF6B32"/>
<stop offset="0.5" stop-color="#F09819"/>
<stop offset="1" stop-color="#FF6932"/>
</linearGradient>
</defs>
</svg>
