<svg width="24" height="24" viewBox="0 0 24 24" fill="none" xmlns="http://www.w3.org/2000/svg">
<path d="M20.25 5.99999H13.8103L17.0306 2.78061C17.1714 2.63988 17.2504 2.44901 17.2504 2.24999C17.2504 2.05097 17.1714 1.8601 17.0306 1.71936C16.8899 1.57863 16.699 1.49957 16.5 1.49957C16.301 1.49957 16.1101 1.57863 15.9694 1.71936L12 5.68968L8.03063 1.71936C7.96094 1.64968 7.87822 1.59441 7.78717 1.55669C7.69613 1.51898 7.59855 1.49957 7.5 1.49957C7.40145 1.49957 7.30387 1.51898 7.21283 1.55669C7.12178 1.59441 7.03906 1.64968 6.96937 1.71936C6.82864 1.8601 6.74958 2.05097 6.74958 2.24999C6.74958 2.44901 6.82864 2.63988 6.96937 2.78061L10.1897 5.99999H3.75C3.35218 5.99999 2.97064 6.15803 2.68934 6.43933C2.40804 6.72063 2.25 7.10217 2.25 7.49999V18.75C2.25 19.1478 2.40804 19.5293 2.68934 19.8106C2.97064 20.092 3.35218 20.25 3.75 20.25H20.25C20.6478 20.25 21.0294 20.092 21.3107 19.8106C21.592 19.5293 21.75 19.1478 21.75 18.75V7.49999C21.75 7.10217 21.592 6.72063 21.3107 6.43933C21.0294 6.15803 20.6478 5.99999 20.25 5.99999ZM20.25 18.75H3.75V7.49999H20.25V18.75Z" fill="url(#paint0_linear_635_4438)"/>
<defs>
<linearGradient id="paint0_linear_635_4438" x1="21.75" y1="10.8748" x2="2.25" y2="10.8748" gradientUnits="userSpaceOnUse">
<stop stop-color="#FF6B32"/>
<stop offset="0.5" stop-color="#F09819"/>
<stop offset="1" stop-color="#FF6932"/>
</linearGradient>
</defs>
</svg>
