<svg width="297" height="80" viewBox="0 0 297 80" fill="none" xmlns="http://www.w3.org/2000/svg">
<path d="M79.8415 39.9273C73.9223 37.2802 64.8383 32.3445 56.0478 23.468C47.4185 14.7578 42.6088 5.83193 40.0182 0C40.013 0.0285751 40.0078 0.0597467 40 0.0961151C39.9896 0.0597467 39.987 0.0259774 39.9818 0C37.3912 5.83452 32.5789 14.7578 23.9522 23.468C15.1566 32.3471 6.0751 37.2828 0.158507 39.9273C0.106539 39.9558 0.0519683 39.9792 0 40C0.0519683 40.0234 0.106539 40.0467 0.158507 40.0727C6.0777 42.7146 15.1566 47.6555 23.9522 56.532C32.5789 65.2422 37.3912 74.1681 39.9818 80C39.987 79.9714 39.9922 79.9402 40 79.9039C40.0104 79.9402 40.013 79.974 40.0182 80C42.6088 74.1655 47.4185 65.2422 56.0478 56.532C64.8409 47.6529 73.9249 42.712 79.8415 40.0727C79.8935 40.0442 79.948 40.0208 80 40C79.948 39.9766 79.8935 39.9532 79.8415 39.9273ZM49.9467 49.0505C43.3857 55.389 40.8575 62.9017 39.9922 68.9492C39.1321 62.9017 36.6039 55.389 30.0481 49.0505C24.0691 43.2757 17.2379 40.8884 11.5785 40.0026C17.2379 39.109 24.0691 36.7216 30.0481 30.9495C36.6065 24.611 39.1321 17.1035 39.9922 11.056C40.8575 17.1035 43.3831 24.6162 49.9467 30.9495C55.9257 36.7242 62.7569 39.1116 68.4163 40.0026C62.7569 40.891 55.9257 43.2783 49.9467 49.0505Z" fill="#FEA815"/>
<path d="M111.83 50V21.2H119.31V50H111.83ZM142.23 50L140.55 44.04H130.51L128.87 50H121.27L130.95 21.2H140.11L149.83 50H142.23ZM132.19 38.04H138.91L136.03 27.76H135.07L132.19 38.04ZM150.233 40.04H156.793C157.193 42.76 159.713 44.52 163.073 44.52C165.553 44.52 167.273 43.4 167.273 41.84C167.273 40.2 165.793 39.36 163.073 38.76C158.393 37.72 151.073 37.12 151.073 30.16C151.073 24.44 155.753 20.6 162.793 20.6C169.553 20.6 173.753 24 174.353 30H168.153C167.553 27.68 164.833 26.64 162.633 26.64C160.873 26.64 158.553 27.32 158.553 29.28C158.553 30.68 160.033 31.52 162.353 32.04C166.993 33.16 174.713 33.72 174.713 41C174.713 46.96 170.193 50.6 162.833 50.6C155.033 50.6 150.393 46.64 150.233 40.04Z" fill="#1E3A8A"/>
<path d="M184.139 40.04H190.699C191.099 42.76 193.619 44.52 196.979 44.52C199.459 44.52 201.179 43.4 201.179 41.84C201.179 40.2 199.699 39.36 196.979 38.76C192.299 37.72 184.979 37.12 184.979 30.16C184.979 24.44 189.659 20.6 196.699 20.6C203.459 20.6 207.659 24 208.259 30H202.059C201.459 27.68 198.739 26.64 196.539 26.64C194.779 26.64 192.459 27.32 192.459 29.28C192.459 30.68 193.939 31.52 196.259 32.04C200.899 33.16 208.619 33.72 208.619 41C208.619 46.96 204.099 50.6 196.739 50.6C188.939 50.6 184.299 46.64 184.139 40.04ZM210.998 58.32V28.88H217.438L218.078 32.32H219.038C220.238 29.72 222.118 28.28 224.678 28.28C229.478 28.28 232.598 32.84 232.598 39.64C232.598 46.24 229.358 50.6 224.358 50.6C221.758 50.6 219.838 48.88 219.038 46.44H218.078V58.32H210.998ZM221.798 44.48C223.998 44.48 225.518 42.4 225.518 39.36C225.518 36.36 223.998 34.32 221.758 34.32C219.598 34.32 218.078 36.36 218.078 39.4C218.078 42.4 219.558 44.48 221.798 44.48ZM247.104 36.76C247.104 34.4 245.744 33.44 243.864 33.44C242.184 33.44 240.864 34.4 240.464 36.04H234.304C235.144 30.64 239.704 28.28 244.424 28.28C249.504 28.28 253.984 30.76 253.984 36.68V50H247.544L247.104 46.92H246.144C244.544 49.32 242.584 50.6 239.744 50.6C236.264 50.6 233.824 48.48 233.824 44.72C233.824 38.8 239.864 37.08 245.024 37.12H247.104V36.76ZM247.104 40.8C246.504 40.8 245.624 40.8 245.144 40.8C243.024 40.8 240.704 41.52 240.704 43.36C240.704 44.68 241.784 45.4 243.104 45.4C245.384 45.4 247.104 43.64 247.104 41.6V40.8ZM272.056 28.88V35.56H268.976C266.456 35.56 263.976 37.32 263.976 40.56V50H256.896V28.88H263.336L263.976 33.2H264.936C265.936 30.24 267.256 28.88 269.656 28.88H272.056ZM281.359 50H274.279V21.2H281.359V36.8H282.279L287.479 28.88H295.799L288.519 38.48L296.199 50H287.679L282.279 40.4H281.359V50Z" fill="#FEA815"/>
</svg>
