<svg width="24" height="24" viewBox="0 0 24 24" fill="none" xmlns="http://www.w3.org/2000/svg">
<path d="M17.0001 11.0001C16.4471 11.0001 15.9999 10.552 15.9999 9.99994V6C15.9999 3.79395 14.2061 2.00006 12 2.00006C9.79395 2.00006 8.00006 3.79395 8.00006 6V9.99994C8.00006 10.552 7.55292 11.0001 6.99994 11.0001C6.44696 11.0001 6 10.552 6 9.99994V6C6 2.69092 8.69092 0 12 0C15.3091 0 18 2.69092 18 6V9.99994C18 10.552 17.553 11.0001 17.0001 11.0001Z" fill="#F0F0F0"/>
<path d="M18.75 9H5.25C4.01001 9 3 10.0089 3 11.25V21.75C3 22.9911 4.01001 24 5.25 24H18.75C19.99 24 21 22.9911 21 21.75V11.25C21 10.0089 19.99 9 18.75 9Z" fill="url(#paint0_linear_827_10197)"/>
<defs>
<linearGradient id="paint0_linear_827_10197" x1="21" y1="16.5" x2="3" y2="16.5" gradientUnits="userSpaceOnUse">
<stop stop-color="#FF6B32"/>
<stop offset="0.5" stop-color="#F09819"/>
<stop offset="1" stop-color="#FF6932"/>
</linearGradient>
</defs>
</svg>
