<svg width="46" height="46" viewBox="0 0 46 46" fill="none" xmlns="http://www.w3.org/2000/svg">
<rect width="46" height="46" rx="23" fill="#F0F0F0"/>
<path d="M29.5455 36.9287C29.5455 37.2128 29.4305 37.4853 29.2259 37.6862C29.0214 37.8871 28.7439 38 28.4546 38H17.5456C17.2562 38 16.9788 37.8871 16.7742 37.6862C16.5696 37.4853 16.4547 37.2128 16.4547 36.9287C16.4547 36.6446 16.5696 36.3721 16.7742 36.1712C16.9788 35.9703 17.2562 35.8574 17.5456 35.8574H28.4546C28.7439 35.8574 29.0214 35.9703 29.2259 36.1712C29.4305 36.3721 29.5455 36.6446 29.5455 36.9287ZM35 19.7878C35.0047 21.5737 34.5938 23.3371 33.7988 24.9433C33.0038 26.5496 31.8457 27.9562 30.4127 29.0559C30.1448 29.2576 29.9274 29.5168 29.7771 29.8136C29.6267 30.1105 29.5475 30.4372 29.5455 30.7687V31.5722C29.5455 32.1404 29.3156 32.6854 28.9064 33.0872C28.4973 33.489 27.9423 33.7148 27.3637 33.7148H18.6365C18.0578 33.7148 17.5029 33.489 17.0937 33.0872C16.6845 32.6854 16.4547 32.1404 16.4547 31.5722V30.7687C16.4545 30.4411 16.3778 30.118 16.2305 29.8241C16.0832 29.5302 15.8693 29.2734 15.6051 29.0733C14.1758 27.9801 13.0184 26.5819 12.2206 24.9846C11.4228 23.3872 11.0054 21.6326 11.0002 19.8534C10.9647 13.4711 16.2174 8.15608 22.711 8.00342C24.311 7.96556 25.9025 8.24239 27.392 8.81764C28.8814 9.39288 30.2386 10.2549 31.3837 11.353C32.5288 12.4511 33.4386 13.763 34.0597 15.2116C34.6807 16.6601 35.0004 18.2161 35 19.7878ZM28.1355 20.1011C28.0342 20.0015 27.9138 19.9225 27.7814 19.8686C27.649 19.8147 27.507 19.7869 27.3637 19.7869C27.2203 19.7869 27.0784 19.8147 26.9459 19.8686C26.8135 19.9225 26.6932 20.0015 26.5919 20.1011L23.0001 23.6298L19.4083 20.1011C19.2036 19.9001 18.926 19.7872 18.6365 19.7872C18.347 19.7872 18.0694 19.9001 17.8647 20.1011C17.66 20.3022 17.545 20.5748 17.545 20.8591C17.545 21.1434 17.66 21.416 17.8647 21.617L21.9092 25.5876V30.5009C21.9092 30.785 22.0241 31.0575 22.2287 31.2584C22.4333 31.4593 22.7107 31.5722 23.0001 31.5722C23.2894 31.5722 23.5669 31.4593 23.7715 31.2584C23.976 31.0575 24.091 30.785 24.091 30.5009V25.5876L28.1355 21.617C28.2369 21.5176 28.3174 21.3994 28.3723 21.2693C28.4272 21.1393 28.4554 20.9999 28.4554 20.8591C28.4554 20.7183 28.4272 20.5789 28.3723 20.4489C28.3174 20.3188 28.2369 20.2006 28.1355 20.1011Z" fill="#1E3A8A"/>
</svg>
