<svg width="46" height="46" viewBox="0 0 46 46" fill="none" xmlns="http://www.w3.org/2000/svg">
<rect width="46" height="46" rx="23" fill="#F0F0F0"/>
<path d="M37.9726 19.7152C37.9726 19.7296 37.9726 19.7426 37.9633 19.757L34.9252 33.3044C34.8317 33.7815 34.5702 34.2118 34.1858 34.5213C33.8014 34.8308 33.3182 35.0001 32.8194 35H13.1859C12.6874 34.9998 12.2045 34.8304 11.8204 34.5209C11.4363 34.2114 11.175 33.7813 11.0815 33.3044L8.04346 19.757C8.04346 19.7426 8.03676 19.7296 8.03408 19.7152C7.95094 19.2667 8.02089 18.804 8.23326 18.3978C8.44563 17.9916 8.78874 17.6643 9.21016 17.4659C9.63157 17.2675 10.1081 17.2088 10.567 17.2989C11.0259 17.389 11.4418 17.6229 11.7513 17.9649L16.2615 22.6981L21.057 12.2261C21.0572 12.2218 21.0572 12.2174 21.057 12.2131C21.2285 11.8509 21.5029 11.5442 21.8479 11.3292C22.1928 11.1143 22.5938 11 23.0034 11C23.4129 11 23.8139 11.1143 24.1588 11.3292C24.5038 11.5442 24.7782 11.8509 24.9497 12.2131C24.9495 12.2174 24.9495 12.2218 24.9497 12.2261L29.7452 22.6981L34.2554 17.9649C34.5655 17.6255 34.981 17.3939 35.4386 17.3052C35.8962 17.2166 36.371 17.2758 36.7909 17.4738C37.2109 17.6718 37.553 17.9978 37.7653 18.4024C37.9776 18.8069 38.0485 19.2679 37.9673 19.7152H37.9726Z" fill="#1E3A8A"/>
</svg>
