<svg width="46" height="46" viewBox="0 0 46 46" fill="none" xmlns="http://www.w3.org/2000/svg">
<rect width="46" height="46" rx="23" fill="#F0F0F0"/>
<path d="M34.586 15.6121V15.0611C34.5845 13.8672 34.23 12.7002 33.5669 11.7067C32.9038 10.7132 31.9616 9.93744 30.8586 9.47673C29.7556 9.01603 28.5409 8.89091 27.367 9.11709C26.1931 9.34327 25.1122 9.91067 24.26 10.7481C24.2096 10.7988 24.1697 10.859 24.1427 10.9252C24.1157 10.9914 24.1021 11.0623 24.1027 11.1338V23.3552C24.103 23.4546 24.1302 23.552 24.1813 23.6372C24.2325 23.7224 24.3058 23.7922 24.3934 23.8392C24.481 23.8862 24.5798 23.9087 24.6792 23.9042C24.7785 23.8998 24.8749 23.8686 24.9579 23.814C26.0072 23.1421 27.2261 22.7819 28.4726 22.7753C28.7611 22.77 29.0407 22.8752 29.2539 23.0694C29.4671 23.2636 29.5977 23.5321 29.6189 23.8195C29.6267 23.969 29.604 24.1185 29.5521 24.259C29.5002 24.3994 29.4201 24.5279 29.3169 24.6364C29.2136 24.7449 29.0893 24.8313 28.9515 24.8903C28.8137 24.9493 28.6653 24.9796 28.5154 24.9794C27.3447 24.9794 26.222 25.4438 25.3942 26.2705C24.5664 27.0971 24.1014 28.2184 24.1014 29.3875V34.0545C24.1012 34.137 24.1196 34.2184 24.1552 34.2927C24.1908 34.3671 24.2426 34.4326 24.3069 34.4843C25.0899 35.1315 26.0119 35.5896 27.0011 35.8231C27.9903 36.0565 29.0201 36.059 30.0104 35.8303C31.0007 35.6016 31.9248 35.1479 32.711 34.5045C33.4972 33.8611 34.1241 33.0453 34.5432 32.1205C34.5854 32.0275 34.6009 31.9246 34.5879 31.8233C34.575 31.722 34.5341 31.6264 34.4699 31.5469C34.4057 31.4675 34.3206 31.4074 34.2242 31.3735C34.1278 31.3395 34.0238 31.333 33.9239 31.3546C33.2361 31.512 32.5328 31.5915 31.8272 31.5915H30.761C30.4763 31.595 30.2008 31.4909 29.9897 31.3001C29.7787 31.1092 29.6477 30.8458 29.623 30.5625C29.613 30.4117 29.6341 30.2606 29.685 30.1183C29.736 29.9761 29.8157 29.8458 29.9192 29.7356C30.0227 29.6254 30.1477 29.5376 30.2866 29.4777C30.4255 29.4179 30.5752 29.3871 30.7265 29.3875H31.83C32.9829 29.3892 34.119 29.1112 35.1405 28.5775C36.3502 27.9483 37.3552 26.9876 38.0377 25.8082C38.7201 24.6288 39.0517 23.2795 38.9935 21.9186C38.9353 20.5577 38.4897 19.2416 37.7091 18.1246C36.9284 17.0076 35.845 16.136 34.586 15.6121ZM32.9307 20.5713H32.379C31.062 20.5713 29.7989 20.0488 28.8677 19.1188C27.9364 18.1888 27.4132 16.9274 27.4132 15.6121V15.0611C27.4132 14.7689 27.5295 14.4886 27.7364 14.2819C27.9434 14.0752 28.2241 13.9591 28.5167 13.9591C28.8094 13.9591 29.0901 14.0752 29.297 14.2819C29.504 14.4886 29.6202 14.7689 29.6202 15.0611V15.6121C29.6202 15.9739 29.6916 16.3322 29.8302 16.6665C29.9689 17.0007 30.1721 17.3044 30.4282 17.5603C30.9456 18.0769 31.6473 18.3672 32.379 18.3672H32.9307C33.2234 18.3672 33.5041 18.4833 33.711 18.69C33.918 18.8967 34.0342 19.177 34.0342 19.4692C34.0342 19.7615 33.918 20.0418 33.711 20.2485C33.5041 20.4552 33.2234 20.5713 32.9307 20.5713ZM17.4817 9C15.8726 9.00182 14.33 9.64099 13.1921 10.7773C12.0543 11.9136 11.4143 13.4542 11.4125 15.0611V15.6121C10.1536 16.1363 9.07042 17.0081 8.29003 18.1253C7.50964 19.2424 7.06438 20.5586 7.00647 21.9195C6.94856 23.2804 7.28039 24.6296 7.96305 25.8088C8.64571 26.9881 9.6509 27.9485 10.8607 28.5775C11.8823 29.1112 13.0183 29.3892 14.1712 29.3875H15.2375C15.5227 29.3833 15.7988 29.487 16.0105 29.678C16.2221 29.8689 16.3535 30.1327 16.3782 30.4165C16.3883 30.5672 16.3671 30.7184 16.3162 30.8607C16.2652 31.0029 16.1855 31.1332 16.0821 31.2434C15.9786 31.3536 15.8535 31.4413 15.7146 31.5012C15.5757 31.5611 15.426 31.5918 15.2747 31.5915H14.1712C13.4651 31.5918 12.7612 31.5118 12.0732 31.3532C11.9734 31.3314 11.8694 31.3378 11.773 31.3716C11.6766 31.4054 11.5914 31.4652 11.527 31.5445C11.4627 31.6238 11.4216 31.7194 11.4085 31.8206C11.3953 31.9218 11.4105 32.0247 11.4525 32.1177C11.8715 33.0428 12.4984 33.8588 13.2846 34.5025C14.0707 35.1462 14.9949 35.6002 15.9854 35.8292C16.9758 36.0581 18.0058 36.0559 18.9952 35.8226C19.9846 35.5894 20.9068 35.1314 21.6902 34.4843C21.7545 34.4326 21.8063 34.3671 21.8419 34.2927C21.8774 34.2184 21.8958 34.137 21.8957 34.0545V29.3875C21.8957 28.2184 21.4307 27.0971 20.6029 26.2705C19.7751 25.4438 18.6524 24.9794 17.4817 24.9794C17.3318 24.9796 17.1834 24.9493 17.0456 24.8903C16.9078 24.8313 16.7835 24.7449 16.6802 24.6364C16.577 24.5279 16.4969 24.3994 16.445 24.259C16.3931 24.1185 16.3704 23.969 16.3782 23.8195C16.3994 23.5318 16.5301 23.2632 16.7436 23.0689C16.9572 22.8747 17.2371 22.7696 17.5259 22.7753C18.7723 22.7819 19.9912 23.1421 21.0405 23.814C21.1236 23.8686 21.2199 23.8998 21.3193 23.9042C21.4187 23.9087 21.5174 23.8862 21.6051 23.8392C21.6927 23.7922 21.766 23.7224 21.8171 23.6372C21.8683 23.552 21.8955 23.4546 21.8957 23.3552V11.1338C21.8962 10.9892 21.8397 10.8501 21.7385 10.7467C20.6055 9.62709 19.0757 8.99936 17.4817 9ZM18.5852 15.6121C18.5852 16.9274 18.0621 18.1888 17.1308 19.1188C16.1995 20.0488 14.9365 20.5713 13.6195 20.5713H13.0677C12.7751 20.5713 12.4944 20.4552 12.2874 20.2485C12.0805 20.0418 11.9642 19.7615 11.9642 19.4692C11.9642 19.177 12.0805 18.8967 12.2874 18.69C12.4944 18.4833 12.7751 18.3672 13.0677 18.3672H13.6195C13.9818 18.3672 14.3405 18.2959 14.6752 18.1575C15.0099 18.019 15.314 17.8161 15.5702 17.5603C15.8264 17.3044 16.0296 17.0007 16.1682 16.6665C16.3069 16.3322 16.3782 15.9739 16.3782 15.6121V15.0611C16.3782 14.7689 16.4945 14.4886 16.7014 14.2819C16.9084 14.0752 17.1891 13.9591 17.4817 13.9591C17.7744 13.9591 18.0551 14.0752 18.262 14.2819C18.469 14.4886 18.5852 14.7689 18.5852 15.0611V15.6121Z" fill="#1E3A8A"/>
</svg>
