<svg width="46" height="46" viewBox="0 0 46 46" fill="none" xmlns="http://www.w3.org/2000/svg">
<rect width="46" height="46" rx="23" fill="#F0F0F0"/>
<path d="M23.0041 10C20.7595 9.99951 18.5529 10.5801 16.5993 11.6853C14.6456 12.7905 13.0114 14.3826 11.8557 16.3066C10.7 18.2307 10.0622 20.4212 10.0043 22.6648C9.94645 24.9085 10.4705 27.1289 11.5255 29.11L10.1066 33.3662C9.98907 33.7186 9.97201 34.0968 10.0573 34.4583C10.1427 34.8199 10.327 35.1505 10.5897 35.4132C10.8524 35.6759 11.1831 35.8602 11.5446 35.9455C11.9062 36.0308 12.2844 36.0138 12.6368 35.8962L16.8935 34.4775C18.6371 35.4048 20.5691 35.9228 22.5428 35.992C24.5165 36.0613 26.4801 35.68 28.2844 34.8772C30.0888 34.0743 31.6865 32.871 32.9563 31.3586C34.2261 29.8462 35.1347 28.0644 35.613 26.1484C36.0912 24.2325 36.1267 22.2328 35.7167 20.301C35.3067 18.3693 34.462 16.5564 33.2466 14.9999C32.0313 13.4434 30.4772 12.1842 28.7025 11.3178C26.9278 10.4515 24.979 10.0008 23.0041 10ZM17.5036 24.5C17.2069 24.5 16.9168 24.412 16.6701 24.2472C16.4234 24.0824 16.2311 23.8481 16.1176 23.574C16.0041 23.2999 15.9744 22.9983 16.0322 22.7074C16.0901 22.4164 16.233 22.1491 16.4428 21.9393C16.6526 21.7296 16.9199 21.5867 17.2109 21.5288C17.5019 21.4709 17.8035 21.5006 18.0776 21.6142C18.3518 21.7277 18.586 21.92 18.7509 22.1666C18.9157 22.4133 19.0037 22.7033 19.0037 23C19.0037 23.3978 18.8456 23.7794 18.5643 24.0607C18.283 24.342 17.9014 24.5 17.5036 24.5ZM23.0041 24.5C22.7074 24.5 22.4173 24.412 22.1706 24.2472C21.924 24.0824 21.7317 23.8481 21.6181 23.574C21.5046 23.2999 21.4749 22.9983 21.5328 22.7074C21.5906 22.4164 21.7335 22.1491 21.9433 21.9393C22.1531 21.7296 22.4204 21.5867 22.7114 21.5288C23.0024 21.4709 23.304 21.5006 23.5782 21.6142C23.8523 21.7277 24.0866 21.92 24.2514 22.1666C24.4162 22.4133 24.5042 22.7033 24.5042 23C24.5042 23.3978 24.3462 23.7794 24.0648 24.0607C23.7835 24.342 23.4019 24.5 23.0041 24.5ZM28.5046 24.5C28.2079 24.5 27.9179 24.412 27.6712 24.2472C27.4245 24.0824 27.2322 23.8481 27.1187 23.574C27.0051 23.2999 26.9754 22.9983 27.0333 22.7074C27.0912 22.4164 27.2341 22.1491 27.4439 21.9393C27.6537 21.7296 27.9209 21.5867 28.212 21.5288C28.5029 21.4709 28.8046 21.5006 29.0787 21.6142C29.3528 21.7277 29.5871 21.92 29.7519 22.1666C29.9168 22.4133 30.0048 22.7033 30.0048 23C30.0048 23.3978 29.8467 23.7794 29.5654 24.0607C29.284 24.342 28.9025 24.5 28.5046 24.5Z" fill="#1E3A8A"/>
</svg>
