<svg width="46" height="46" viewBox="0 0 46 46" fill="none" xmlns="http://www.w3.org/2000/svg">
<rect width="46" height="46" rx="23" fill="#F0F0F0"/>
<path d="M34.7105 22.6647L19.4361 38.6627C19.2742 38.8316 19.0605 38.9444 18.8273 38.9841C18.5941 39.0239 18.354 38.9884 18.1432 38.8831C17.9324 38.7777 17.7624 38.6082 17.6589 38.4001C17.5553 38.192 17.5237 37.9566 17.569 37.7295L19.5683 27.9534L11.7088 25.0684C11.54 25.0067 11.3895 24.9051 11.2707 24.7726C11.1519 24.6401 11.0685 24.481 11.0279 24.3093C10.9874 24.1376 10.991 23.9588 11.0384 23.7889C11.0859 23.6189 11.1756 23.4631 11.2997 23.3353L26.5742 7.33728C26.736 7.16842 26.9497 7.0556 27.1829 7.01585C27.4161 6.9761 27.6562 7.01158 27.867 7.11694C28.0778 7.22229 28.2478 7.3918 28.3513 7.59989C28.4549 7.80798 28.4865 8.04336 28.4412 8.2705L26.4364 18.0573L34.296 20.9383C34.4635 21.0004 34.6128 21.1019 34.7307 21.2339C34.8486 21.3658 34.9314 21.5241 34.9719 21.6947C35.0123 21.8654 35.0091 22.0432 34.9626 22.2123C34.9161 22.3815 34.8276 22.5369 34.7051 22.6647H34.7105Z" fill="#1E3A8A"/>
</svg>
