<svg width="50" height="50" viewBox="0 0 50 50" fill="none" xmlns="http://www.w3.org/2000/svg">
<rect width="50" height="50" rx="25" fill="#F0F0F0"/>
<path d="M33.1398 20.5282C33.2594 21.3913 33.2429 22.2446 33.1085 23.0669C32.8483 22.85 32.5921 22.5784 32.3279 22.2895C31.5325 21.4194 30.5453 20.3356 28.9674 20.9577C28.5641 21.1686 28.2743 21.5147 28.0187 21.8201C27.7341 22.1606 27.5389 22.3777 27.334 22.4086C26.9795 22.3 26.7355 22.108 26.5891 21.8216C26.2533 21.1651 26.3859 19.9734 26.9631 18.4665C26.9736 18.4392 26.982 18.4111 26.9879 18.3824C27.1598 17.5431 27.0173 16.7185 26.8797 15.922C26.7416 15.1222 26.6139 14.3603 26.8277 13.6727C30.0822 14.4188 32.6748 17.1765 33.1398 20.5282ZM17.6776 17.9832C18.9038 18.1686 19.6309 18.4582 19.8297 18.8475C20.1167 19.4101 19.5015 20.6256 18.8471 21.8214C18.7818 21.9405 18.7639 22.0799 18.7968 22.2116C19.3188 24.295 19.348 24.6954 17.6987 25.4981C17.1044 24.3459 16.7747 23.0558 16.7747 21.7135C16.7747 20.4025 17.0973 19.1291 17.6776 17.9832ZM27.24 39.5349C27.24 40.6186 26.3611 41.5 25.2811 41.5H24.7189C23.6389 41.5 22.7599 40.6187 22.7599 39.5349V38.8707H27.2399L27.24 39.5349ZM28.8651 36.7024C28.8651 37.3049 28.3766 37.7947 27.7763 37.7947H22.2237C21.6235 37.7947 21.1349 37.3049 21.1349 36.7024C21.1349 36.0999 21.6234 35.6102 22.2237 35.6102H27.7763C28.3766 35.6102 28.8651 36.0999 28.8651 36.7024ZM27.7763 34.5342H22.2237C21.6235 34.5342 21.1349 34.0445 21.1349 33.442C21.1349 32.8394 21.6234 32.349 22.2237 32.349H27.7763C28.3766 32.349 28.8651 32.8394 28.8651 33.442C28.8651 34.0445 28.3766 34.5342 27.7763 34.5342ZM29.4695 28.6374C28.5442 29.2406 27.9387 30.2004 27.7861 31.2723H22.21C22.0556 30.2025 21.4442 29.2385 20.5102 28.6255C19.6053 28.032 18.8462 27.2787 18.2497 26.4198C20.2909 25.3782 20.4544 24.4926 19.8879 22.1549C20.7221 20.6157 21.2924 19.3533 20.7846 18.3578C20.4366 17.6754 19.6606 17.2521 18.265 16.992C18.6274 16.4714 19.0455 15.9863 19.5258 15.5562C21.2459 14.017 23.4523 13.2977 25.7592 13.5064C25.5307 14.3789 25.6755 15.2537 25.8226 16.1055C25.9462 16.8201 26.0628 17.4961 25.9448 18.1245C25.252 19.9516 25.1476 21.3605 25.6348 22.3132C25.9344 22.8989 26.4403 23.2885 27.1384 23.4713C27.1807 23.4825 27.2246 23.4881 27.2686 23.4888C27.9889 23.5126 28.4733 22.9508 28.8402 22.5122C29.0501 22.2614 29.2488 22.0239 29.4104 21.9356C30.2129 21.6238 30.715 22.117 31.5369 23.0166C31.9358 23.4531 32.3477 23.897 32.8401 24.1997C32.2795 25.991 31.1176 27.562 29.4695 28.6374ZM24.4637 10.5667V9.03804C24.4637 8.74097 24.7039 8.5 25 8.5C25.2961 8.5 25.5363 8.74097 25.5363 9.03804V10.5667C25.5363 10.8638 25.2961 11.1047 25 11.1047C24.7039 11.1047 24.4637 10.8638 24.4637 10.5667ZM29.3934 11.4606L30.0618 10.0868C30.1913 9.81918 30.5122 9.70849 30.779 9.83952C31.045 9.96981 31.1554 10.2921 31.0255 10.559L30.3571 11.9328C30.2643 12.1241 30.0736 12.2348 29.875 12.2348C29.7961 12.2348 29.7157 12.2172 29.64 12.1801C29.3739 12.0498 29.2635 11.7275 29.3934 11.4606ZM35.2936 14.3414L34.0924 15.2809C33.9943 15.358 33.878 15.3951 33.7627 15.3951C33.6032 15.3951 33.4454 15.3243 33.3396 15.1877C33.1573 14.9537 33.1989 14.6154 33.4324 14.4325L34.6336 13.493C34.8676 13.3095 35.2041 13.3508 35.3864 13.5862C35.5687 13.8202 35.5271 14.1585 35.2936 14.3414ZM18.9745 10.559C18.8447 10.2921 18.955 9.96981 19.2211 9.83952C19.4875 9.70924 19.8084 9.81993 19.9382 10.0868L20.6066 11.4606C20.7364 11.7275 20.6261 12.0498 20.3601 12.1801C20.2843 12.2172 20.2039 12.2348 20.1251 12.2348C19.9264 12.2348 19.7357 12.1241 19.6429 11.9328L18.9745 10.559ZM15.9076 15.2809L14.7065 14.3414C14.4728 14.1585 14.4313 13.8201 14.6136 13.5862C14.7959 13.3508 15.1325 13.3095 15.3664 13.493L16.5676 14.4325C16.8012 14.6154 16.8428 14.9538 16.6605 15.1877C16.5546 15.3243 16.3968 15.3951 16.2373 15.3951C16.1221 15.3951 16.0058 15.358 15.9076 15.2809ZM26.504 25.1261C26.1963 25.0539 25.9303 24.9909 25.7595 24.8353C25.6355 24.7218 25.5231 24.5586 25.4044 24.3849C25.1784 24.0557 24.8967 23.6451 24.3994 23.4314C23.7531 23.1532 23.1937 23.1567 22.7379 23.4447C21.8046 24.0332 21.7351 25.6004 21.689 26.638L21.676 26.9119C21.6673 27.08 21.654 27.3337 21.7424 27.59C21.9899 28.3046 22.8242 28.5582 23.5155 28.4377C23.7132 28.4041 23.9073 28.3473 24.1004 28.2899C24.342 28.2185 24.5676 28.1322 24.7726 28.1533C25.0197 28.1561 25.2949 28.2618 25.5865 28.3733C25.9402 28.5092 26.3334 28.6605 26.7678 28.6605C26.8572 28.6605 26.9487 28.6542 27.0416 28.6395C27.3789 28.5883 27.6642 28.4314 27.8447 28.1981C27.9669 28.0398 28.0263 27.8709 28.0724 27.7112C28.306 26.9055 28.2082 26.212 27.7972 25.758C27.4205 25.3426 26.9335 25.2277 26.504 25.1261ZM27.0424 27.4114C27.0172 27.4983 27.0032 27.5291 26.9994 27.5354C26.9921 27.5424 26.9544 27.5649 26.8803 27.5761C26.6139 27.6181 26.3164 27.5018 25.97 27.3687C25.6202 27.2342 25.2238 27.0822 24.7842 27.0773H24.7636C24.4078 27.0773 24.0834 27.1733 23.7967 27.258C23.6437 27.3035 23.4909 27.3505 23.3347 27.3771C23.0582 27.4234 22.7914 27.34 22.7558 27.2377C22.7362 27.1802 22.7425 27.0583 22.7474 26.97L22.7607 26.6856C22.79 26.0229 22.8512 24.6441 23.3086 24.3562C23.4486 24.2686 23.6731 24.2897 23.9772 24.4207C24.1892 24.5118 24.3428 24.736 24.5206 24.9952C24.662 25.2012 24.8219 25.4344 25.0377 25.6313C25.4142 25.9746 25.8628 26.0804 26.2584 26.1742C26.5762 26.2492 26.8506 26.3137 27.0039 26.4825C27.2141 26.7144 27.101 27.2089 27.0424 27.4114Z" fill="#1E3A8A"/>
</svg>
