<svg width="50" height="50" viewBox="0 0 50 50" fill="none" xmlns="http://www.w3.org/2000/svg">
<rect width="50" height="50" rx="25" fill="#F0F0F0"/>
<path fill-rule="evenodd" clip-rule="evenodd" d="M14.963 30.1268C14.6749 29.8404 14.2762 29.6627 13.8362 29.6627C13.3962 29.6627 12.9974 29.8398 12.7093 30.1268C12.4212 30.4133 12.2425 30.8097 12.2425 31.2472C12.2425 31.6846 12.4206 32.0811 12.7093 32.3675C12.9974 32.654 13.3962 32.8317 13.8362 32.8317C14.2762 32.8317 14.6749 32.6546 14.963 32.3675C15.2512 32.0811 15.4299 31.6846 15.4299 31.2472C15.4299 30.8097 15.2518 30.4133 14.963 30.1268ZM10.5006 38.5H17.1717V36.1282C17.1717 35.4763 16.903 34.8835 16.4705 34.4535C16.038 34.0235 15.4418 33.7563 14.7862 33.7563H12.8856C12.23 33.7563 11.6337 34.0235 11.2012 34.4535C10.7687 34.8835 10.5 35.4763 10.5 36.1282V38.5H10.5006ZM28.0396 14.018C27.0965 13.0804 25.7928 12.5 24.3535 12.5C22.9141 12.5 21.6104 13.0804 20.6673 14.018C19.7242 14.9557 19.1404 16.2519 19.1404 17.683C19.1404 19.114 19.7242 20.4102 20.6673 21.3479C21.6091 22.2843 22.9104 22.8641 24.3478 22.8659H24.3597C25.7972 22.8641 27.0978 22.2843 28.0396 21.3479C28.9827 20.4102 29.5665 19.114 29.5665 17.683C29.5665 16.2519 28.9827 14.9557 28.0396 14.018ZM20.7698 30.1268C20.4817 29.8404 20.0829 29.6627 19.6429 29.6627C19.2029 29.6627 18.8042 29.8398 18.5161 30.1268C18.228 30.4133 18.0492 30.8097 18.0492 31.2472C18.0492 31.6846 18.2273 32.0811 18.5161 32.3675C18.8042 32.654 19.2029 32.8317 19.6429 32.8317C20.0829 32.8317 20.4817 32.6546 20.7698 32.3675C21.0579 32.0811 21.2367 31.6846 21.2367 31.2472C21.2367 30.8097 21.0585 30.4133 20.7698 30.1268ZM26.5765 30.1268C26.2884 29.8404 25.8897 29.6627 25.4497 29.6627C25.0097 29.6627 24.611 29.8398 24.3228 30.1268C24.0347 30.4133 23.856 30.8097 23.856 31.2472C23.856 31.6846 24.0341 32.0811 24.3228 32.3675C24.611 32.654 25.0097 32.8317 25.4497 32.8317C25.8897 32.8317 26.2884 32.6546 26.5765 32.3675C26.8647 32.0811 27.0434 31.6846 27.0434 31.2472C27.0434 30.8097 26.8653 30.4133 26.5765 30.1268ZM28.7852 38.5V36.1282C28.7852 35.4763 28.5165 34.8835 28.084 34.4535C27.6515 34.0235 27.0553 33.7563 26.3997 33.7563H24.4991C23.8435 33.7563 23.2472 34.0235 22.8147 34.4535C22.3823 34.8835 22.1135 35.4763 22.1135 36.1282V38.5H28.7846H28.7852ZM21.1835 38.5V36.1282C21.1835 35.3763 21.4398 34.6816 21.8691 34.1261C21.7435 34.0459 21.6098 33.9776 21.4704 33.9223C21.201 33.8154 20.9054 33.757 20.5923 33.757H18.6917C18.3792 33.757 18.083 33.816 17.8136 33.9223C17.6742 33.9776 17.5411 34.0459 17.4149 34.1261C17.8442 34.6822 18.1005 35.3769 18.1005 36.1282V38.5H21.1817H21.1835ZM26.9378 23.7912H26.974C27.8371 23.7912 28.6665 23.9397 29.4359 24.2119C29.7546 24.325 30.064 24.4586 30.3608 24.612L27.9078 24.6071C27.7528 24.5959 27.5959 24.6624 27.4978 24.7966C27.3471 25.0029 27.3934 25.2918 27.6015 25.4416L31.6852 28.3795L30.1183 33.143H30.1196C30.0752 33.2791 30.0946 33.4326 30.1858 33.5569C30.3365 33.7626 30.6258 33.8079 30.8327 33.6582L34.3714 31.0918V31.1459V38.5H29.7159V36.1282C29.7159 35.221 29.3427 34.397 28.7421 33.7992C28.3465 33.4059 27.8515 33.1107 27.299 32.9548C27.7178 32.5067 27.974 31.9065 27.974 31.2466C27.974 30.5537 27.6915 29.9261 27.2347 29.4725C26.7778 29.0183 26.1472 28.7374 25.4503 28.7374C24.7535 28.7374 24.1222 29.0183 23.666 29.4725C23.2097 29.9267 22.9266 30.5537 22.9266 31.2466C22.9266 31.9394 23.1829 32.5067 23.6016 32.9548C23.2172 33.0629 22.861 33.2387 22.546 33.468C22.3223 33.3052 22.076 33.1691 21.8135 33.0647C21.7085 33.0231 21.601 32.9865 21.4916 32.9554C21.911 32.5074 22.1679 31.9065 22.1679 31.2459C22.1679 30.5531 21.8854 29.9255 21.4285 29.4719C20.9717 29.0177 20.341 28.7368 19.6442 28.7368C18.9473 28.7368 18.3161 29.0177 17.8598 29.4719C17.4036 29.9261 17.1205 30.5531 17.1205 31.2459C17.1205 31.9388 17.3774 32.5074 17.7967 32.9554C17.6874 32.9865 17.5799 33.0231 17.4749 33.0647C17.2124 33.1691 16.9661 33.3052 16.7424 33.468C16.428 33.2387 16.0711 33.0629 15.6868 32.9548C16.1055 32.5067 16.3618 31.9065 16.3618 31.2466C16.3618 30.5537 16.0793 29.9261 15.6224 29.4725C15.363 29.2146 15.048 29.0127 14.6962 28.8865C15.1599 27.4685 16.048 26.2357 17.2092 25.3378C18.4623 24.3691 20.0336 23.7906 21.7341 23.7906H21.7704L23.9372 28.2043C24.0497 28.4336 24.3278 28.5293 24.5585 28.4174C24.656 28.3702 24.7291 28.2937 24.7728 28.2043C24.8166 28.1148 26.939 23.7906 26.939 23.7906L26.9378 23.7912ZM22.8035 23.7912L24.3535 26.9491L25.9034 23.7912H24.3535H24.3478H22.8035ZM32.7602 26.9025L34.3508 28.5112C34.5301 28.6927 34.8239 28.6952 35.007 28.5168C35.0107 28.5131 35.0145 28.5094 35.0176 28.5056C35.0207 28.5019 37.8376 25.536 37.8376 25.536L40.5 25.5311L37.3063 27.829C37.1338 27.9532 37.0726 28.1732 37.1432 28.3627L38.3632 32.0718L35.1782 29.7621C35.0089 29.6397 34.7845 29.6477 34.6257 29.7677L31.4483 32.0724L32.6739 28.3459C32.7377 28.1508 32.6633 27.9439 32.5045 27.8296C32.3458 27.7152 29.3109 25.5317 29.3109 25.5317L33.2527 25.5391C33.4589 25.5391 33.6339 25.4049 33.6939 25.2191C33.7539 25.0333 34.9045 21.4902 34.9045 21.4902L36.1151 25.2191C36.1776 25.4136 36.3582 25.5379 36.5526 25.5391L34.6751 27.5245L33.4208 26.2556C33.2414 26.0742 32.9477 26.0717 32.7645 26.25C32.582 26.4284 32.5795 26.7204 32.7589 26.9025H32.7602Z" fill="#1E3A8A"/>
</svg>
