<svg width="50" height="50" viewBox="0 0 50 50" fill="none" xmlns="http://www.w3.org/2000/svg">
<rect width="50" height="50" rx="25" fill="#F0F0F0"/>
<path d="M18.1991 22.9478H20.0767C20.2473 22.9478 20.3876 23.088 20.3876 23.2587V24.2341C20.924 24.3621 21.4421 24.5754 21.9115 24.8619L22.6004 24.1731C22.7223 24.0512 22.9174 24.0512 23.0393 24.1731L24.3682 25.502C24.4901 25.6239 24.4901 25.819 24.3682 25.9409L23.6793 26.6298C23.9658 27.0991 24.1792 27.6173 24.3072 28.1537H25.2826C25.4532 28.1537 25.5935 28.2939 25.5935 28.4646V30.3422C25.5935 30.5128 25.4532 30.653 25.2826 30.653H24.3072C24.1792 31.1895 23.9658 31.7076 23.6793 32.177L24.3682 32.8659C24.4901 32.9878 24.4901 33.1828 24.3682 33.3048L23.0393 34.6337C22.9174 34.7556 22.7223 34.7556 22.6004 34.6337L21.9115 33.9448C21.4726 34.2131 20.991 34.4203 20.4912 34.5483C20.4729 34.6946 20.4485 34.847 20.4241 35.0055C20.4119 35.0665 20.3997 35.1274 20.3876 35.1945V35.5542C20.3876 35.6578 20.3327 35.7553 20.2534 35.8102C19.9791 36.9501 19.8145 37.7487 19.6439 38.5533C19.4976 39.2666 19.3452 39.9798 19.1074 40.9795H28.6292L29.0925 39.0532C29.4339 37.6329 30.6835 36.6331 32.1344 36.6331H34.2618C34.9446 36.6331 35.5237 36.3893 36.0113 35.9138C36.499 35.4322 36.755 34.8592 36.7672 34.1765C36.7794 33.3718 36.7855 32.8902 36.7916 32.4087C36.7977 31.9271 36.7977 31.4455 36.816 30.6591C36.8099 30.4946 36.9318 30.3483 37.1025 30.33L39.7481 30.1959C40.3211 30.1715 40.693 29.5375 40.3943 29.0437C39.5287 27.6051 38.1266 25.5142 37.5353 24.2706C37.517 24.228 37.5048 24.1792 37.5048 24.1304C37.706 17.9065 34.8836 13.3346 28.2817 13.3346C25.8312 13.3346 23.4111 13.7064 21.4056 14.7245C21.4421 14.8403 21.4726 14.9622 21.5031 15.0841H22.4784C22.6491 15.0841 22.7893 15.2243 22.7893 15.395V17.2725C22.7893 17.4432 22.6491 17.5834 22.4784 17.5834H21.5031C21.4421 17.8334 21.3446 18.1443 21.2471 18.3698C21.1434 18.6258 21.0154 18.8697 20.8691 19.1074L21.558 19.7962C21.6799 19.9182 21.6799 20.1132 21.558 20.2352L20.2291 21.5641C20.1071 21.686 19.9121 21.686 19.7902 21.5641L19.1013 20.8752C18.6319 21.1617 18.1138 21.3751 17.5773 21.5031V22.4784C17.5773 22.6491 17.4371 22.7893 17.2665 22.7893H16.8093C16.8214 23.3745 16.8702 23.9597 16.9617 24.545C17.2543 24.4108 17.5591 24.3072 17.876 24.2341V23.2587C17.8882 23.088 18.0284 22.9478 18.1991 22.9478ZM19.7658 23.5696H18.51V24.484C18.51 24.6303 18.4064 24.7583 18.254 24.7888C17.937 24.8497 17.6261 24.9412 17.3396 25.0631C17.047 25.185 16.7727 25.3313 16.5167 25.5081C16.3947 25.6056 16.218 25.5935 16.1082 25.4837L15.4621 24.8376L14.5721 25.7276L15.2182 26.3737C15.3219 26.4774 15.3401 26.6419 15.2548 26.77C15.078 27.0321 14.9195 27.3186 14.7976 27.6112C14.6818 27.8977 14.5903 28.1964 14.5294 28.5073C14.5111 28.6597 14.3831 28.7816 14.2185 28.7816H13.3041V30.0374H14.2185C14.3648 30.0374 14.4989 30.141 14.5233 30.2934C14.5843 30.6104 14.6757 30.9213 14.7976 31.2139C14.9195 31.5004 15.0658 31.7808 15.2426 32.0368C15.3401 32.1587 15.328 32.3355 15.2182 32.4452L14.5721 33.0914L15.4621 33.9814L16.1082 33.3352C16.2119 33.2316 16.3764 33.2133 16.5045 33.2987C16.7666 33.4755 17.0531 33.6339 17.3457 33.7559C17.6322 33.8717 17.9309 33.9631 18.2418 34.0241C18.4003 34.0424 18.5161 34.1765 18.5161 34.335V35.2494H19.7536C19.7597 35.2128 19.7719 35.1762 19.778 35.1396V34.3594C19.7719 34.207 19.8755 34.0668 20.034 34.0363C20.351 33.9753 20.6558 33.8839 20.9484 33.762C21.241 33.64 21.5153 33.4937 21.7713 33.317C21.8932 33.2194 22.07 33.2316 22.1797 33.3413L22.8259 33.9875L23.7159 33.0975L23.0637 32.4391C22.96 32.3355 22.9417 32.1709 23.0271 32.0429C23.2039 31.7808 23.3624 31.4943 23.4843 31.2017C23.6001 30.9152 23.6915 30.6165 23.7525 30.3056C23.7708 30.1471 23.8988 30.0313 24.0573 30.0313H24.9717V28.7755H24.0573C23.911 28.7755 23.783 28.6719 23.7525 28.5256C23.6915 28.2086 23.6001 27.8977 23.4782 27.6051C23.3563 27.3125 23.21 27.0382 23.0332 26.7822C22.9356 26.6602 22.9478 26.4835 23.0576 26.3737L23.7037 25.7276L22.8198 24.8376L22.1737 25.4837C22.07 25.5874 21.9054 25.6056 21.7774 25.5203C21.5153 25.3435 21.2288 25.1911 20.9362 25.0631C20.6497 24.9412 20.351 24.8497 20.0401 24.7888C19.8877 24.7705 19.7658 24.6425 19.7658 24.484V23.5696ZM19.1379 25.9653C21.0398 25.9653 22.576 27.5076 22.576 29.4095C22.576 31.3114 21.0337 32.8537 19.1318 32.8537C17.2299 32.8537 15.6876 31.3114 15.6876 29.4095C15.6876 27.5076 17.236 25.9653 19.1379 25.9653ZM21.1313 27.41C20.1864 26.4652 18.7051 26.3128 17.5834 27.0504C18.4247 29.5863 19.6926 30.4153 20.2656 31.9881C21.2776 31.543 21.9542 30.5433 21.9542 29.4034C21.9603 28.6292 21.6433 27.9221 21.1313 27.41ZM17.0775 27.4832C16.0412 28.5926 16.0656 30.33 17.1445 31.4028C17.6566 31.9149 18.3637 32.2319 19.1379 32.2319C19.3208 32.2319 19.5036 32.2136 19.6743 32.177C19.1562 30.7811 17.9248 29.8728 17.0775 27.4832ZM16.9678 10.5H15.712V11.4144C15.712 11.5607 15.6084 11.6887 15.456 11.7192C15.139 11.7801 14.8281 11.8716 14.5416 11.9935C14.249 12.1154 13.9747 12.2617 13.7125 12.4385C13.5906 12.536 13.4138 12.5238 13.3041 12.4141L12.6579 11.7619L11.7679 12.6519L12.4141 13.298C12.5177 13.4016 12.536 13.5662 12.4507 13.6943C12.2739 13.9564 12.1154 14.2429 11.9935 14.5355C11.8777 14.822 11.7862 15.1207 11.7253 15.4316C11.707 15.584 11.5729 15.7059 11.4144 15.7059H10.5V16.9617H11.4144C11.5607 16.9617 11.6948 17.0653 11.7192 17.2177C11.7801 17.5347 11.8716 17.8456 11.9935 18.1382C12.1154 18.4308 12.2617 18.7051 12.4385 18.9611C12.536 19.083 12.5238 19.2598 12.4141 19.3695L11.7679 20.0157L12.6579 20.9057L13.3041 20.2595C13.4077 20.1559 13.5723 20.1376 13.7003 20.223C13.9625 20.3997 14.249 20.5521 14.5416 20.6802C14.8281 20.8021 15.1268 20.8874 15.4377 20.9484C15.5962 20.9667 15.712 21.1008 15.712 21.2593V22.1736H16.9678V21.2776C16.9617 21.1252 17.0653 20.9849 17.2177 20.9545C17.5347 20.8935 17.8456 20.8021 18.1382 20.6802C18.4308 20.5582 18.7051 20.4119 18.9611 20.2352C19.083 20.1376 19.2598 20.1498 19.3695 20.2595L20.0157 20.9057L20.9057 20.0157L20.2595 19.3695C20.1559 19.2659 20.1376 19.1013 20.223 18.9733C20.3997 18.7112 20.5521 18.4247 20.6802 18.1321C20.796 17.8456 20.8874 17.5469 20.9484 17.236C20.9667 17.0775 21.0947 16.9617 21.2532 16.9617H22.1676V15.7059H21.2532C21.1069 15.7059 20.9789 15.6023 20.9484 15.456C20.8874 15.139 20.796 14.8281 20.6741 14.5355C20.5521 14.2429 20.4058 13.9686 20.2291 13.7125C20.1315 13.5906 20.1437 13.4138 20.2534 13.3041L20.8996 12.6579L20.0096 11.7679L19.3634 12.4141C19.2598 12.5177 19.0952 12.536 18.9672 12.4507C18.7051 12.2739 18.4186 12.1215 18.126 11.9935C17.8395 11.8716 17.5408 11.7801 17.2299 11.7253C17.0775 11.707 16.9556 11.5729 16.9556 11.4144V10.5H16.9678ZM16.3399 12.8896C18.2418 12.8896 19.778 14.4319 19.778 16.3338C19.778 18.2357 18.2357 19.778 16.3338 19.778C14.4319 19.778 12.8896 18.2357 12.8896 16.3338C12.8896 14.4319 14.438 12.8896 16.3399 12.8896ZM18.3332 14.3404C17.2299 13.2371 15.4438 13.2371 14.3465 14.3404C13.2432 15.4438 13.2432 17.2299 14.3465 18.3332C14.8586 18.8453 15.5657 19.1562 16.3399 19.1562C16.4801 19.1562 16.6203 19.144 16.7544 19.1257C17.2238 17.7663 17.9858 16.5715 19.0647 15.5962C18.9306 15.1146 18.6746 14.6818 18.3332 14.3404ZM17.4981 18.9062C18.4856 18.4612 19.1501 17.4798 19.1623 16.3582C18.4369 17.0958 17.8821 17.9553 17.4981 18.9062ZM30.0678 26.7273H27.3613C27.343 25.5995 27.282 24.5632 27.7636 23.5635C28.2878 22.4723 29.44 21.6494 30.2934 20.8386C30.5067 20.6314 30.647 20.4851 30.714 20.3997C31.031 19.9547 31.0981 19.3634 30.8786 18.8575C30.6957 18.443 30.3117 18.1016 29.8728 17.9492C29.3851 17.7785 28.7146 17.7724 28.2208 17.9553C27.9769 18.0406 27.7575 18.1747 27.5624 18.3515C27.1052 18.766 26.8553 19.4061 26.7273 20.0523L26.6724 20.3388L23.6793 19.9304L23.6976 19.6439C23.7708 18.3576 24.2889 17.2664 25.2277 16.3764C26.2335 15.4255 27.5198 15.0354 28.934 15.0354C30.3909 15.0354 31.732 15.4194 32.7683 16.3886C33.6888 17.2604 34.2131 18.3149 34.2131 19.5707C34.2131 20.2534 34.0302 20.9057 33.6766 21.4909C33.2377 22.2285 32.2807 23.1429 31.5065 23.8317C31.1651 24.1304 30.6957 24.5876 30.5494 24.9229C30.3665 25.3252 30.3909 26.1908 30.397 26.7212H30.0678V26.7273ZM27.9709 26.1055H29.757C29.763 25.6239 29.7996 25.0509 29.9703 24.673C30.1654 24.2341 30.6591 23.7525 31.0859 23.3745C31.7991 22.7467 32.7378 21.8445 33.1341 21.18C33.4328 20.6802 33.5852 20.1498 33.5852 19.5707C33.5852 18.4856 33.1402 17.5956 32.3416 16.8458C31.4272 15.9802 30.2385 15.6632 28.934 15.6632C27.6722 15.6632 26.5444 15.9924 25.6544 16.8336C24.9046 17.5408 24.4657 18.3881 24.3438 19.3939L26.1908 19.6439C26.5566 18.193 27.4771 17.1933 29.0498 17.1933C29.763 17.1933 30.4214 17.3823 30.9274 17.8638C31.5674 18.4612 31.8052 19.3269 31.537 20.1498C31.3785 20.6314 31.1468 20.8874 30.7323 21.2836C30.1959 21.7957 29.3912 22.4297 28.867 23.0454C28.4159 23.5696 28.1903 24.0085 28.0684 24.6669C27.9648 25.1606 27.9648 25.5995 27.9709 26.1055ZM27.3552 30.1959V27.6722H30.3787V30.5067H27.3552V30.1959ZM27.9769 28.2939V29.885H29.757V28.2939H27.9769Z" fill="#1E3A8A"/>
</svg>
