<svg width="50" height="50" viewBox="0 0 50 50" fill="none" xmlns="http://www.w3.org/2000/svg">
<rect width="50" height="50" rx="25" fill="#F0F0F0"/>
<g clip-path="url(#clip0_674_4995)">
<path fill-rule="evenodd" clip-rule="evenodd" d="M12.4345 39.6176C13.6436 37.1595 14.1758 34.8398 13.9574 32.8554C13.8927 32.2617 13.6805 31.7694 13.2929 31.3141C12.1022 29.9081 11.3823 28.0869 11.3823 26.0964C11.3823 21.6385 14.9941 18.0236 19.4551 18.0236C23.9129 18.0236 27.5247 21.6385 27.5247 26.0964C27.5247 26.3733 27.5124 26.644 27.4848 26.9116C27.4263 27.4931 27.5247 28.0069 27.7955 28.5237C28.0877 29.0867 28.4846 29.6374 28.9861 30.182C29.4199 30.7357 29.2691 31.188 28.5431 31.5449C28.1677 31.7387 28.0539 32.074 28.2939 32.9016C28.4477 33.2554 27.7432 33.6953 27.1956 33.7384C27.8478 34.0922 28.4816 34.6552 27.9124 35.0951C27.654 35.2859 27.4848 35.6489 27.4756 36.6457C27.5063 37.2887 26.8141 37.4856 25.3958 37.2395C23.273 36.7596 22.027 37.5502 21.6579 39.6176H12.4345ZM19.3196 30.586C22.1224 30.586 24.4057 28.3028 24.4057 25.5C24.4057 22.7006 22.1224 20.4139 19.3196 20.4139C16.5202 20.4139 14.2336 22.7006 14.2336 25.5C14.2336 28.3028 16.5202 30.586 19.3196 30.586ZM19.3196 29.6449C17.0383 29.6449 15.1747 27.7841 15.1747 25.5C15.1747 23.2186 17.0383 21.3551 19.3196 21.3551C21.6038 21.3551 23.4646 23.2186 23.4646 25.5C23.4646 27.7841 21.6038 29.6449 19.3196 29.6449ZM16.8187 25.963L18.0843 27.2286C18.2617 27.406 18.5473 27.413 18.7332 27.2443L21.8071 24.4558C21.9994 24.2813 22.0139 23.9834 21.8394 23.7911C21.6649 23.5987 21.3671 23.5842 21.1747 23.7587L18.4328 26.2461L17.4842 25.2975C17.3006 25.1139 17.0024 25.1139 16.8187 25.2975C16.635 25.4811 16.635 25.7793 16.8187 25.963ZM39.6176 19.4811C39.6176 20.2233 39.012 20.8268 38.2699 20.8268H32.1816L30.0514 23.0443C29.9682 23.1308 29.8408 23.1581 29.7294 23.1133C29.6181 23.0685 29.5451 22.9605 29.5451 22.8405V20.8268H28.4054C27.6632 20.8268 27.0576 20.2233 27.0576 19.4811V12.7301C27.0576 11.9879 27.6632 11.3823 28.4054 11.3823H38.2699C39.012 11.3823 39.6176 11.9879 39.6176 12.7301V19.4811ZM29.6838 18.7364H33.1529C33.4126 18.7364 33.6235 18.5256 33.6235 18.2659C33.6235 18.0061 33.4126 17.7953 33.1529 17.7953H29.6838C29.4241 17.7953 29.2132 18.0061 29.2132 18.2659C29.2132 18.5256 29.4241 18.7364 29.6838 18.7364ZM29.6838 14.4607H36.8732C37.1329 14.4607 37.3438 14.2499 37.3438 13.9901C37.3438 13.7304 37.1329 13.5196 36.8732 13.5196H29.6838C29.4241 13.5196 29.2132 13.7304 29.2132 13.9901C29.2132 14.2499 29.4241 14.4607 29.6838 14.4607ZM29.6838 16.5996H36.8732C37.1329 16.5996 37.3438 16.3887 37.3438 16.129C37.3438 15.8693 37.1329 15.6584 36.8732 15.6584H29.6838C29.4241 15.6584 29.2132 15.8693 29.2132 16.129C29.2132 16.3887 29.4241 16.5996 29.6838 16.5996ZM33.3376 33.0115C33.5973 33.0115 33.8082 33.2223 33.8082 33.4821C33.8082 33.7418 33.5973 33.9527 33.3376 33.9527H31.9724C31.7127 33.9527 31.5019 33.7418 31.5019 33.4821C31.5019 33.2223 31.7127 33.0115 31.9724 33.0115H33.3376ZM31.6536 29.8871C31.8373 29.7034 32.1355 29.7034 32.3191 29.8871C32.5028 30.0707 32.5028 30.369 32.3191 30.5526L31.3538 31.518C31.1701 31.7016 30.872 31.7016 30.6883 31.518C30.5046 31.3343 30.5046 31.0361 30.6883 30.8524L31.6536 29.8871ZM32.3191 36.4115C32.5028 36.5951 32.5028 36.8934 32.3191 37.077C32.1355 37.2607 31.8373 37.2607 31.6536 37.077L30.6883 36.1117C30.5046 35.928 30.5046 35.6299 30.6883 35.4461C30.872 35.2625 31.1701 35.2625 31.3538 35.4461L32.3191 36.4115Z" fill="#1E3A8A"/>
</g>
<defs>
<clipPath id="clip0_674_4995">
<rect width="30" height="30" fill="white" transform="translate(10.5 10.5)"/>
</clipPath>
</defs>
</svg>
