<svg width="18" height="18" viewBox="0 0 18 18" fill="none" xmlns="http://www.w3.org/2000/svg">
<path d="M12.5215 5.71701L15.9849 6.21121C16.967 6.35129 17.3605 7.54571 16.6509 8.2322L14.148 10.6533C13.8661 10.926 13.738 11.3184 13.8049 11.7028L14.4005 15.1168C14.5694 16.0848 13.5439 16.8244 12.665 16.3684L9.56591 14.76C9.21689 14.5789 8.80019 14.5793 8.45171 14.7612L5.35643 16.3771C4.47875 16.8353 3.45131 16.098 3.61781 15.1296L4.20515 11.7142C4.27121 11.3296 4.14215 10.9374 3.85955 10.6654L1.35125 8.2502C0.639894 7.56531 1.03049 6.37 2.01239 6.22761L5.47451 5.72539C5.86439 5.6689 6.20117 5.42598 6.37505 5.07596L7.91999 1.96731C8.35811 1.08585 9.62693 1.08424 10.067 1.96482L11.6194 5.06973C11.7941 5.41921 12.1315 5.66141 12.5215 5.71701Z" fill="#FEA815"/>
</svg>
